<svg width="56" height="64" viewBox="0 0 56 64" fill="none" xmlns="http://www.w3.org/2000/svg">
<g filter="url(#filter0_d_404_119)">
<path d="M28 56.0001C40.5723 56.0001 50.7642 52.433 50.7642 48.0326V33.0083L28 37.9026V56.0001Z" fill="#FFC250"/>
<path d="M48.1463 33.5711V48.0327C48.1463 52.1231 39.339 55.493 28 55.9474V56.0001C40.5723 56.0001 50.7642 52.433 50.7642 48.0326V33.0083L48.1463 33.5711Z" fill="#EBB044"/>
<path d="M28 40.9758C40.5723 40.9758 50.7642 37.4087 50.7642 33.0083H28V40.9758Z" fill="#FFE07D"/>
<path d="M48.1463 33.0084C47.0082 38.5856 28 40.9758 28 40.9758C40.5723 40.9758 50.7642 37.4087 50.7642 33.0083H48.1463V33.0084Z" fill="#FFD064"/>
<path d="M28 23.4565H50.7642V33.008H28V23.4565Z" fill="#DF73C1"/>
<path d="M48.1465 23.4565H50.7644V33.008H48.1465V23.4565Z" fill="#DD4FB1"/>
<path d="M28.0001 56.0002C15.4277 56.0002 5.23584 52.4331 5.23584 48.0327V7.96777H28.0001V56.0002Z" fill="#80B4FB"/>
<path d="M25.7236 7.96777V55.9608C26.4724 55.9867 27.2317 56.0002 28.0001 56.0002V7.96777H25.7236Z" fill="#61A2F9"/>
<path d="M35.5217 15.9351L28 23.4568H50.7642C50.7642 19.9791 44.3975 17.0224 35.5217 15.9351Z" fill="#EAAADD"/>
<path d="M35.5217 15.9351L35.5205 15.9363C40.6423 16.6217 48.1463 19.9809 48.1463 23.4568H50.7642C50.7642 19.9791 44.3975 17.0224 35.5217 15.9351Z" fill="#E490D0"/>
<path d="M35.1944 0.772953V0.774047L33.3589 2.60837L28.4621 7.50531C28.1663 7.80117 28.0001 8.20236 28.0001 8.62072V14.798C28.0001 15.4261 27.4863 15.9356 26.8582 15.9248C14.8163 15.7165 5.23608 12.2333 5.23608 7.96731C5.23608 3.56737 15.4276 0 28.0001 0C30.1156 0.00142187 32.2273 0.0992031 34.3303 0.31325C34.6773 0.354922 34.9804 0.525109 35.1944 0.772953Z" fill="#9DC6FB"/>
<path d="M35.5212 1.65614V15.9345L33.3589 18.0967V18.0978L28 23.4567V8.62049C28 8.20213 28.1662 7.80083 28.462 7.50508L33.3588 2.60825L35.1944 0.773926C35.3983 1.0116 35.5212 1.32146 35.5212 1.65614Z" fill="#5490F9"/>
<path d="M35.5211 1.65625V15.9346L33.3589 18.0979V2.61504L35.1944 0.773926C35.3983 1.01171 35.5211 1.32157 35.5211 1.65625Z" fill="#4A81F6"/>
<path d="M33.359 2.60873L35.1945 0.773305V0.773195C34.979 0.524367 34.674 0.353414 34.3241 0.313055C33.8636 0.26668 33.3973 0.224898 32.9254 0.188477L26.3821 6.73184C25.9552 7.15873 25.7153 7.73776 25.7153 8.34151V15.8951C26.0958 15.9083 26.477 15.9181 26.8587 15.9247C27.4867 15.9355 28.0002 15.4261 28.0002 14.798V8.62096C28.0002 8.2026 28.1664 7.80131 28.4622 7.50556L33.359 2.60873Z" fill="#80B4FB"/>
</g>
<defs>
<filter id="filter0_d_404_119" x="1.23584" y="0" width="53.5283" height="64" filterUnits="userSpaceOnUse" color-interpolation-filters="sRGB">
<feFlood flood-opacity="0" result="BackgroundImageFix"/>
<feColorMatrix in="SourceAlpha" type="matrix" values="0 0 0 0 0 0 0 0 0 0 0 0 0 0 0 0 0 0 127 0" result="hardAlpha"/>
<feOffset dy="4"/>
<feGaussianBlur stdDeviation="2"/>
<feComposite in2="hardAlpha" operator="out"/>
<feColorMatrix type="matrix" values="0 0 0 0 0 0 0 0 0 0 0 0 0 0 0 0 0 0 0.25 0"/>
<feBlend mode="normal" in2="BackgroundImageFix" result="effect1_dropShadow_404_119"/>
<feBlend mode="normal" in="SourceGraphic" in2="effect1_dropShadow_404_119" result="shape"/>
</filter>
</defs>
</svg>
