<svg width="63" height="64" viewBox="0 0 63 64" fill="none" xmlns="http://www.w3.org/2000/svg">
<g filter="url(#filter0_d_404_180)">
<path d="M19.7985 33.2863C19.4899 33.2863 19.1924 33.1165 19.0436 32.8222L12.5494 19.9728L6.05499 32.8223C5.84445 33.2389 5.33618 33.4058 4.91957 33.1954C4.50296 32.9848 4.33595 32.4766 4.54649 32.0599L11.795 17.7183C11.9388 17.4337 12.2304 17.2544 12.5492 17.2544C12.868 17.2544 13.1597 17.4338 13.3035 17.7183L20.5521 32.0598C20.7626 32.4764 20.5956 32.9847 20.179 33.1953C20.0567 33.2571 19.9267 33.2863 19.7985 33.2863Z" fill="#FFC250"/>
<path d="M57.5673 25.3039C57.2587 25.3039 56.9612 25.1342 56.8124 24.8399L50.3182 11.9904L43.8239 24.8399C43.6134 25.2565 43.1051 25.4234 42.6885 25.2129C42.2719 25.0024 42.1049 24.4941 42.3154 24.0775L49.5639 9.73583C49.7077 9.45124 49.9993 9.27197 50.3182 9.27197C50.637 9.27197 50.9286 9.45135 51.0724 9.73583L58.3209 24.0775C58.5315 24.4941 58.3644 25.0024 57.9478 25.2129C57.8257 25.2746 57.6955 25.3039 57.5673 25.3039Z" fill="#FFC250"/>
<path d="M57.0293 8.53542L6.80872 19.2618C5.55397 19.5298 4.31967 18.7299 4.05159 17.4752C3.78363 16.2204 4.58348 14.9861 5.83823 14.7181L56.0589 3.99166C57.3136 3.72369 58.5479 4.52355 58.816 5.7783C59.084 7.03305 58.284 8.26745 57.0293 8.53542Z" fill="#C6865C"/>
<path d="M58.8162 5.77799C58.9501 6.40493 58.8169 7.02793 58.4937 7.52668C58.1705 8.02543 57.6575 8.40124 57.0293 8.53533L6.80925 19.2617C5.55417 19.5298 4.31987 18.73 4.0519 17.4749C3.97917 17.1344 3.98519 16.7956 4.0577 16.4771C4.58445 17.1791 5.48756 17.5508 6.40215 17.3554L56.6222 6.62914C57.2504 6.49494 57.7634 6.11924 58.0867 5.62049C58.2349 5.39179 58.3431 5.13825 58.4033 4.86963C58.5995 5.13071 58.7434 5.4375 58.8162 5.77799Z" fill="#AA7A63"/>
<path d="M32.5208 0.000488281H30.3467C29.126 0.000488281 28.1365 0.990004 28.1365 2.21074V49.5662L31.4338 52.7831L34.7311 49.5662V2.21074C34.731 0.990113 33.7414 0.000488281 32.5208 0.000488281Z" fill="#C6865C"/>
<path d="M30.684 49.5658L32.7077 51.5399L31.4334 52.7827L28.1365 49.5659V2.21069C28.1365 0.989297 29.1258 0 30.346 0H32.5206C32.5837 0 32.6457 0.00229688 32.7076 0.00896875C31.574 0.102484 30.6839 1.0523 30.6839 2.21069V49.5658H30.684Z" fill="#AA7A63"/>
<path d="M44.8237 49.5659H18.0438C16.2672 49.5659 14.8269 51.0062 14.8269 52.7829C14.8269 54.5595 16.2672 55.9998 18.0438 55.9998H44.8237C46.6003 55.9998 48.0406 54.5595 48.0406 52.7829C48.0406 51.0062 46.6003 49.5659 44.8237 49.5659Z" fill="#FFD064"/>
<path d="M23.5627 55.0581C24.1441 55.6407 24.9486 56.0001 25.8376 56.0001H18.0439C17.1559 56.0001 16.3515 55.6407 15.769 55.0581C15.1864 54.4756 14.827 53.6711 14.827 52.7832C14.827 51.0074 16.2671 49.5664 18.0439 49.5664H25.8376C24.0607 49.5664 22.6196 51.0075 22.6196 52.7832C22.6196 53.6711 22.9802 54.4756 23.5627 55.0581Z" fill="#FFC250"/>
<path d="M31.4337 19.0481C35.6006 19.0481 38.9785 15.6702 38.9785 11.5033C38.9785 7.33642 35.6006 3.9585 31.4337 3.9585C27.2668 3.9585 23.8889 7.33642 23.8889 11.5033C23.8889 15.6702 27.2668 19.0481 31.4337 19.0481Z" fill="#FFD064"/>
<path d="M32.3406 18.9934C32.0431 19.0296 31.7401 19.0477 31.4335 19.0477C27.2669 19.0477 23.8889 15.6697 23.8889 11.5031C23.8889 7.33643 27.2669 3.9585 31.4335 3.9585C31.7401 3.9585 32.043 3.97665 32.3406 4.01275C28.6009 4.46042 25.7024 7.64301 25.7024 11.5031C25.7024 15.3631 28.6009 18.5457 32.3406 18.9934Z" fill="#FFC250"/>
<path d="M21.0681 32.4414H4.03064V34.6634C4.03064 36.8416 5.7965 38.6074 7.9747 38.6074H17.1241C19.3023 38.6074 21.0682 36.8416 21.0682 34.6634L21.0681 32.4414Z" fill="#FFD064"/>
<path d="M13.1314 38.607H7.97536C5.79617 38.607 4.03064 36.8413 4.03064 34.6634V32.4414H9.18778V34.6634C9.18778 36.8413 10.9533 38.607 13.1314 38.607Z" fill="#FFC250"/>
<path d="M58.837 24.2666H41.7994V26.4886C41.7994 28.6668 43.5653 30.4326 45.7435 30.4326H54.8929C57.0711 30.4326 58.837 28.6668 58.837 26.4886V24.2666Z" fill="#FFD064"/>
<path d="M50.9002 30.4322H45.7442C43.565 30.4322 41.7994 28.6665 41.7994 26.4886V24.2666H46.9566V26.4886C46.9566 28.6665 48.7222 30.4322 50.9002 30.4322Z" fill="#FFC250"/>
</g>
<defs>
<filter id="filter0_d_404_180" x="0" y="0" width="62.8679" height="64" filterUnits="userSpaceOnUse" color-interpolation-filters="sRGB">
<feFlood flood-opacity="0" result="BackgroundImageFix"/>
<feColorMatrix in="SourceAlpha" type="matrix" values="0 0 0 0 0 0 0 0 0 0 0 0 0 0 0 0 0 0 127 0" result="hardAlpha"/>
<feOffset dy="4"/>
<feGaussianBlur stdDeviation="2"/>
<feComposite in2="hardAlpha" operator="out"/>
<feColorMatrix type="matrix" values="0 0 0 0 0 0 0 0 0 0 0 0 0 0 0 0 0 0 0.25 0"/>
<feBlend mode="normal" in2="BackgroundImageFix" result="effect1_dropShadow_404_180"/>
<feBlend mode="normal" in="SourceGraphic" in2="effect1_dropShadow_404_180" result="shape"/>
</filter>
</defs>
</svg>
