<svg width="56" height="62" viewBox="0 0 56 62" fill="none" xmlns="http://www.w3.org/2000/svg">
<g filter="url(#filter0_d_408_217)">
<path fill-rule="evenodd" clip-rule="evenodd" d="M47.7619 3.89391C48.0122 3.64366 48.0874 3.26741 47.9518 2.94016C47.8162 2.61291 47.4977 2.39941 47.1433 2.39941H23.5419C23.1963 2.39941 22.8839 2.60241 22.7431 2.91741L11.1344 28.8699C11.0128 29.1403 11.0373 29.4544 11.1992 29.7029C11.3602 29.9514 11.6367 30.1019 11.9333 30.1019H22.2811L13.4068 51.9454C13.2493 52.333 13.3884 52.7784 13.7384 53.0068C14.0893 53.236 14.5522 53.1853 14.8444 52.8852L44.3923 22.5428C44.6373 22.2917 44.7082 21.918 44.5726 21.5943C44.4361 21.2705 44.1202 21.0588 43.7693 21.057L30.6391 20.9967L47.7619 3.89391Z" fill="#FED54F"/>
<path fill-rule="evenodd" clip-rule="evenodd" d="M36.0492 21.022L14.0736 53.0872C14.344 53.1852 14.6371 53.0977 14.8445 52.8851L44.3924 22.5427C44.6374 22.2916 44.7082 21.918 44.5726 21.5942C44.4361 21.2705 44.1202 21.0587 43.7694 21.057L36.0492 21.022Z" fill="#FFCB29"/>
</g>
<defs>
<filter id="filter0_d_408_217" x="7.05798" y="2.39941" width="44.9604" height="58.75" filterUnits="userSpaceOnUse" color-interpolation-filters="sRGB">
<feFlood flood-opacity="0" result="BackgroundImageFix"/>
<feColorMatrix in="SourceAlpha" type="matrix" values="0 0 0 0 0 0 0 0 0 0 0 0 0 0 0 0 0 0 127 0" result="hardAlpha"/>
<feOffset dy="4"/>
<feGaussianBlur stdDeviation="2"/>
<feComposite in2="hardAlpha" operator="out"/>
<feColorMatrix type="matrix" values="0 0 0 0 0 0 0 0 0 0 0 0 0 0 0 0 0 0 0.25 0"/>
<feBlend mode="normal" in2="BackgroundImageFix" result="effect1_dropShadow_408_217"/>
<feBlend mode="normal" in="SourceGraphic" in2="effect1_dropShadow_408_217" result="shape"/>
</filter>
</defs>
</svg>
