<svg width="39" height="33" viewBox="0 0 39 33" fill="none" xmlns="http://www.w3.org/2000/svg">
<path d="M17.544 1.41001C17.7528 1.74409 17.8938 2.11603 17.9588 2.50459C18.0239 2.89314 18.0118 3.29071 17.9232 3.67459C17.8346 4.05847 17.6713 4.42114 17.4425 4.74189C17.2138 5.06265 16.9241 5.33521 16.59 5.54401C12.9387 7.8183 10.038 11.1175 8.25 15.03C10.0557 14.879 11.8649 15.2766 13.4409 16.1706C15.0169 17.0647 16.2863 18.4137 17.0831 20.0411C17.8799 21.6684 18.1669 23.4984 17.9067 25.2916C17.6464 27.0847 16.8509 28.7576 15.6243 30.0913C14.3977 31.4249 12.7971 32.3573 11.0319 32.7663C9.26669 33.1754 7.41913 33.0422 5.73093 32.384C4.04272 31.7258 2.59249 30.5734 1.56997 29.0775C0.547449 27.5817 0.000262621 25.812 0 24V23.919C0.00326223 23.6868 0.0132664 23.4547 0.03 23.223C0.057 22.773 0.111 22.143 0.216 21.369C0.426 19.83 0.837 17.709 1.668 15.327C3.324 10.557 6.678 4.66201 13.41 0.456008C13.7441 0.247205 14.116 0.10625 14.5046 0.0411903C14.8931 -0.0238699 15.2907 -0.0117607 15.6746 0.0768264C16.0585 0.165414 16.4211 0.328743 16.7419 0.557491C17.0626 0.786239 17.3352 1.07592 17.544 1.41001ZM38.544 1.41001C38.7528 1.74409 38.8938 2.11603 38.9588 2.50459C39.0239 2.89314 39.0118 3.29071 38.9232 3.67459C38.8346 4.05847 38.6713 4.42114 38.4425 4.74189C38.2138 5.06265 37.9241 5.33521 37.59 5.54401C33.9387 7.8183 31.038 11.1175 29.25 15.03C31.0557 14.879 32.8649 15.2766 34.4409 16.1706C36.0169 17.0647 37.2863 18.4137 38.0831 20.0411C38.8799 21.6684 39.1669 23.4984 38.9067 25.2916C38.6464 27.0847 37.8509 28.7576 36.6243 30.0913C35.3977 31.4249 33.7971 32.3573 32.0319 32.7663C30.2667 33.1754 28.4191 33.0422 26.7309 32.384C25.0427 31.7258 23.5925 30.5734 22.57 29.0775C21.5474 27.5817 21.0003 25.812 21 24V23.919C21.0033 23.6868 21.0133 23.4547 21.03 23.223C21.057 22.773 21.111 22.143 21.216 21.369C21.426 19.83 21.837 17.709 22.668 15.327C24.324 10.557 27.678 4.66201 34.41 0.456008C34.7441 0.247205 35.116 0.10625 35.5046 0.0411903C35.8931 -0.0238699 36.2907 -0.0117607 36.6746 0.0768264C37.0585 0.165414 37.4211 0.328743 37.7419 0.557491C38.0626 0.786239 38.3352 1.07592 38.544 1.41001Z" fill="#D2072A"/>
</svg>
