<svg width="64" height="61" viewBox="0 0 64 61" fill="none" xmlns="http://www.w3.org/2000/svg">
<g filter="url(#filter0_d_404_82)">
<path d="M52.049 19.0622H41.5337V5.15651C41.5337 4.36835 42.1727 3.72949 42.9607 3.72949H50.6219C51.41 3.72949 52.0489 4.36846 52.0489 5.15651V19.0622H52.049Z" fill="url(#paint0_linear_404_82)"/>
<path d="M52.049 19.0622H41.5337V5.15651C41.5337 4.36835 42.1727 3.72949 42.9607 3.72949H50.6219C51.41 3.72949 52.0489 4.36846 52.0489 5.15651V19.0622H52.049Z" fill="url(#paint1_linear_404_82)"/>
<path d="M52.0491 5.15667V19.062H45.5718V3.72998H50.6224C51.4096 3.72998 52.0491 4.36829 52.0491 5.15667Z" fill="url(#paint2_linear_404_82)"/>
<path d="M52.3523 22.4196V49.5921C52.3523 51.0715 51.153 52.2708 49.6736 52.2708H14.3271C12.8477 52.2708 11.6484 51.0715 11.6484 49.5921V22.4196L26.3108 11.5669H37.69L52.3523 22.4196Z" fill="url(#paint3_linear_404_82)"/>
<path d="M11.6482 34.3608V49.592C11.6482 51.0714 12.8475 52.2707 14.3269 52.2707H49.6734C51.1528 52.2707 52.3521 51.0714 52.3521 49.592V34.3608H11.6482Z" fill="url(#paint4_linear_404_82)"/>
<path d="M52.3525 22.4194V34.3604H11.6477V22.4194L26.3111 11.5664H37.6891L52.3525 22.4194Z" fill="url(#paint5_linear_404_82)"/>
<path d="M11.6477 22.4194V34.3604H52.3525V22.4194L37.6891 11.5664H26.3111L11.6477 22.4194Z" fill="url(#paint6_linear_404_82)"/>
<path d="M32 11.5664V52.2703H49.6733C51.1527 52.2703 52.352 51.071 52.352 49.5916V22.4191L37.6896 11.5664H32Z" fill="url(#paint7_linear_404_82)"/>
<path d="M33.1164 12.4464L54.1477 28.0131C55.8671 29.2858 58.3061 28.8237 59.4409 27.0104C60.457 25.3866 60.0531 23.2545 58.5135 22.1148L35.0202 4.72568C33.2258 3.39743 30.7743 3.39743 28.9797 4.72568L5.48655 22.1148C3.94687 23.2544 3.54295 25.3866 4.55915 27.0104C5.69392 28.8237 8.13298 29.2858 9.85236 28.0131L30.8836 12.4464C31.5469 11.9554 32.4532 11.9554 33.1164 12.4464Z" fill="url(#paint8_linear_404_82)"/>
<path d="M33.1164 12.4464L54.1477 28.0131C55.8671 29.2858 58.3061 28.8237 59.4409 27.0104C60.457 25.3866 60.0531 23.2545 58.5135 22.1148L35.0202 4.72568C33.2258 3.39743 30.7743 3.39743 28.9797 4.72568L5.48655 22.1148C3.94687 23.2544 3.54295 25.3866 4.55915 27.0104C5.69392 28.8237 8.13298 29.2858 9.85236 28.0131L30.8836 12.4464C31.5469 11.9554 32.4532 11.9554 33.1164 12.4464Z" fill="url(#paint9_linear_404_82)"/>
<path d="M59.4262 27.0325L35.0201 8.96779C33.2257 7.63964 30.7742 7.63964 28.9797 8.96779L4.57373 27.0325C5.71451 28.8271 8.14012 29.2805 9.85228 28.0131L30.8836 12.4463C31.5468 11.9554 32.4531 11.9554 33.1163 12.4463L54.1476 28.0131C55.8599 29.2805 58.2854 28.827 59.4262 27.0325Z" fill="url(#paint10_linear_404_82)"/>
<path d="M41.5337 18.6768L54.1476 28.0133C55.867 29.2859 58.306 28.8238 59.4408 27.0105C60.4569 25.3867 60.0529 23.2546 58.5134 22.1149L46.7801 13.4302L41.5337 18.6768Z" fill="url(#paint11_linear_404_82)"/>
<path d="M22.4663 18.6767L9.85228 28.0133C8.13291 29.2859 5.69384 28.8238 4.55908 27.0105C3.54298 25.3867 3.94691 23.2546 5.48647 22.1149L17.2197 13.4302L22.4663 18.6767Z" fill="url(#paint12_linear_404_82)"/>
<path d="M29.4064 33.0864H23.6927C23.0154 33.0864 22.4663 32.5373 22.4663 31.86V26.1463C22.4663 25.469 23.0154 24.9199 23.6927 24.9199H29.4064C30.0837 24.9199 30.6328 25.469 30.6328 26.1463V31.86C30.6328 32.5372 30.0837 33.0864 29.4064 33.0864Z" fill="url(#paint13_linear_404_82)"/>
<path d="M29.4064 33.0864H23.6927C23.0154 33.0864 22.4663 32.5373 22.4663 31.86V26.1463C22.4663 25.469 23.0154 24.9199 23.6927 24.9199H29.4064C30.0837 24.9199 30.6328 25.469 30.6328 26.1463V31.86C30.6328 32.5372 30.0837 33.0864 29.4064 33.0864Z" fill="url(#paint14_linear_404_82)"/>
<path d="M29.4064 33.0864H23.6927C23.0154 33.0864 22.4663 32.5373 22.4663 31.86V26.1463C22.4663 25.469 23.0154 24.9199 23.6927 24.9199H29.4064C30.0837 24.9199 30.6328 25.469 30.6328 26.1463V31.86C30.6328 32.5372 30.0837 33.0864 29.4064 33.0864Z" fill="url(#paint15_linear_404_82)"/>
<path d="M40.3072 33.0864H34.5936C33.9163 33.0864 33.3672 32.5373 33.3672 31.86V26.1463C33.3672 25.469 33.9163 24.9199 34.5936 24.9199H40.3072C40.9846 24.9199 41.5337 25.469 41.5337 26.1463V31.86C41.5337 32.5372 40.9846 33.0864 40.3072 33.0864Z" fill="url(#paint16_linear_404_82)"/>
<path d="M40.3072 33.0864H34.5936C33.9163 33.0864 33.3672 32.5373 33.3672 31.86V26.1463C33.3672 25.469 33.9163 24.9199 34.5936 24.9199H40.3072C40.9846 24.9199 41.5337 25.469 41.5337 26.1463V31.86C41.5337 32.5372 40.9846 33.0864 40.3072 33.0864Z" fill="url(#paint17_linear_404_82)"/>
<path d="M40.3072 33.0864H34.5936C33.9163 33.0864 33.3672 32.5373 33.3672 31.86V26.1463C33.3672 25.469 33.9163 24.9199 34.5936 24.9199H40.3072C40.9846 24.9199 41.5337 25.469 41.5337 26.1463V31.86C41.5337 32.5372 40.9846 33.0864 40.3072 33.0864Z" fill="url(#paint18_linear_404_82)"/>
<path d="M29.4064 43.8013H23.6927C23.0154 43.8013 22.4663 43.2522 22.4663 42.5748V36.8612C22.4663 36.1838 23.0154 35.6348 23.6927 35.6348H29.4064C30.0837 35.6348 30.6328 36.1838 30.6328 36.8612V42.5748C30.6328 43.2522 30.0837 43.8013 29.4064 43.8013Z" fill="url(#paint19_linear_404_82)"/>
<path d="M29.4064 43.8013H23.6927C23.0154 43.8013 22.4663 43.2522 22.4663 42.5748V36.8612C22.4663 36.1838 23.0154 35.6348 23.6927 35.6348H29.4064C30.0837 35.6348 30.6328 36.1838 30.6328 36.8612V42.5748C30.6328 43.2522 30.0837 43.8013 29.4064 43.8013Z" fill="url(#paint20_linear_404_82)"/>
<path d="M29.4064 43.8013H23.6927C23.0154 43.8013 22.4663 43.2522 22.4663 42.5748V36.8612C22.4663 36.1838 23.0154 35.6348 23.6927 35.6348H29.4064C30.0837 35.6348 30.6328 36.1838 30.6328 36.8612V42.5748C30.6328 43.2522 30.0837 43.8013 29.4064 43.8013Z" fill="url(#paint21_linear_404_82)"/>
<path d="M40.3072 43.8013H34.5936C33.9163 43.8013 33.3672 43.2522 33.3672 42.5748V36.8612C33.3672 36.1838 33.9163 35.6348 34.5936 35.6348H40.3072C40.9846 35.6348 41.5337 36.1838 41.5337 36.8612V42.5748C41.5337 43.2522 40.9846 43.8013 40.3072 43.8013Z" fill="url(#paint22_linear_404_82)"/>
<path d="M40.3072 43.8013H34.5936C33.9163 43.8013 33.3672 43.2522 33.3672 42.5748V36.8612C33.3672 36.1838 33.9163 35.6348 34.5936 35.6348H40.3072C40.9846 35.6348 41.5337 36.1838 41.5337 36.8612V42.5748C41.5337 43.2522 40.9846 43.8013 40.3072 43.8013Z" fill="url(#paint23_linear_404_82)"/>
<path d="M40.3072 43.8013H34.5936C33.9163 43.8013 33.3672 43.2522 33.3672 42.5748V36.8612C33.3672 36.1838 33.9163 35.6348 34.5936 35.6348H40.3072C40.9846 35.6348 41.5337 36.1838 41.5337 36.8612V42.5748C41.5337 43.2522 40.9846 43.8013 40.3072 43.8013Z" fill="url(#paint24_linear_404_82)"/>
</g>
<defs>
<filter id="filter0_d_404_82" x="0" y="3.72949" width="64" height="56.541" filterUnits="userSpaceOnUse" color-interpolation-filters="sRGB">
<feFlood flood-opacity="0" result="BackgroundImageFix"/>
<feColorMatrix in="SourceAlpha" type="matrix" values="0 0 0 0 0 0 0 0 0 0 0 0 0 0 0 0 0 0 127 0" result="hardAlpha"/>
<feOffset dy="4"/>
<feGaussianBlur stdDeviation="2"/>
<feComposite in2="hardAlpha" operator="out"/>
<feColorMatrix type="matrix" values="0 0 0 0 0 0 0 0 0 0 0 0 0 0 0 0 0 0 0.25 0"/>
<feBlend mode="normal" in2="BackgroundImageFix" result="effect1_dropShadow_404_82"/>
<feBlend mode="normal" in="SourceGraphic" in2="effect1_dropShadow_404_82" result="shape"/>
</filter>
<linearGradient id="paint0_linear_404_82" x1="42.7113" y1="11.3958" x2="52.1166" y2="11.3958" gradientUnits="userSpaceOnUse">
<stop stop-color="#FFA1AE"/>
<stop offset="1" stop-color="#FF4565"/>
</linearGradient>
<linearGradient id="paint1_linear_404_82" x1="49.0505" y1="8.56726" x2="45.9121" y2="13.1826" gradientUnits="userSpaceOnUse">
<stop stop-color="#FE0364" stop-opacity="0"/>
<stop offset="0.2343" stop-color="#F90362" stop-opacity="0.234"/>
<stop offset="0.5173" stop-color="#EA035B" stop-opacity="0.517"/>
<stop offset="0.8243" stop-color="#D20250" stop-opacity="0.824"/>
<stop offset="1" stop-color="#C00148"/>
</linearGradient>
<linearGradient id="paint2_linear_404_82" x1="48.684" y1="11.396" x2="52.1525" y2="11.396" gradientUnits="userSpaceOnUse">
<stop stop-color="#FE0364" stop-opacity="0"/>
<stop offset="0.2343" stop-color="#F90362" stop-opacity="0.234"/>
<stop offset="0.5173" stop-color="#EA035B" stop-opacity="0.517"/>
<stop offset="0.8243" stop-color="#D20250" stop-opacity="0.824"/>
<stop offset="1" stop-color="#C00148"/>
</linearGradient>
<linearGradient id="paint3_linear_404_82" x1="16.0474" y1="20.6077" x2="40.404" y2="44.9643" gradientUnits="userSpaceOnUse">
<stop stop-color="#F5FBFF"/>
<stop offset="1" stop-color="#DBD5EF"/>
</linearGradient>
<linearGradient id="paint4_linear_404_82" x1="32.0001" y1="42.546" x2="32.0001" y2="52.9" gradientUnits="userSpaceOnUse">
<stop stop-color="#DBD5EF" stop-opacity="0"/>
<stop offset="0.2853" stop-color="#D9D2EE" stop-opacity="0.285"/>
<stop offset="0.4739" stop-color="#D4C9E9" stop-opacity="0.474"/>
<stop offset="0.6346" stop-color="#CBBAE2" stop-opacity="0.635"/>
<stop offset="0.7795" stop-color="#BFA5D7" stop-opacity="0.78"/>
<stop offset="0.9126" stop-color="#AF8ACA" stop-opacity="0.913"/>
<stop offset="1" stop-color="#A274BF"/>
</linearGradient>
<linearGradient id="paint5_linear_404_82" x1="29.3129" y1="24.4262" x2="24.2655" y2="16.9813" gradientUnits="userSpaceOnUse">
<stop stop-color="#DBD5EF" stop-opacity="0"/>
<stop offset="0.2853" stop-color="#D9D2EE" stop-opacity="0.285"/>
<stop offset="0.4739" stop-color="#D4C9E9" stop-opacity="0.474"/>
<stop offset="0.6346" stop-color="#CBBAE2" stop-opacity="0.635"/>
<stop offset="0.7795" stop-color="#BFA5D7" stop-opacity="0.78"/>
<stop offset="0.9126" stop-color="#AF8ACA" stop-opacity="0.913"/>
<stop offset="1" stop-color="#A274BF"/>
</linearGradient>
<linearGradient id="paint6_linear_404_82" x1="34.6873" y1="24.4262" x2="39.7347" y2="16.9813" gradientUnits="userSpaceOnUse">
<stop stop-color="#DBD5EF" stop-opacity="0"/>
<stop offset="0.2853" stop-color="#D9D2EE" stop-opacity="0.285"/>
<stop offset="0.4739" stop-color="#D4C9E9" stop-opacity="0.474"/>
<stop offset="0.6346" stop-color="#CBBAE2" stop-opacity="0.635"/>
<stop offset="0.7795" stop-color="#BFA5D7" stop-opacity="0.78"/>
<stop offset="0.9126" stop-color="#AF8ACA" stop-opacity="0.913"/>
<stop offset="1" stop-color="#A274BF"/>
</linearGradient>
<linearGradient id="paint7_linear_404_82" x1="38.5487" y1="31.9184" x2="52.9498" y2="31.9184" gradientUnits="userSpaceOnUse">
<stop stop-color="#DBD5EF" stop-opacity="0"/>
<stop offset="0.2853" stop-color="#D9D2EE" stop-opacity="0.285"/>
<stop offset="0.4739" stop-color="#D4C9E9" stop-opacity="0.474"/>
<stop offset="0.6346" stop-color="#CBBAE2" stop-opacity="0.635"/>
<stop offset="0.7795" stop-color="#BFA5D7" stop-opacity="0.78"/>
<stop offset="0.9126" stop-color="#AF8ACA" stop-opacity="0.913"/>
<stop offset="1" stop-color="#A274BF"/>
</linearGradient>
<linearGradient id="paint8_linear_404_82" x1="27.617" y1="3.9128" x2="33.4215" y2="31.9257" gradientUnits="userSpaceOnUse">
<stop stop-color="#B3DAFE"/>
<stop offset="1" stop-color="#0182FC"/>
</linearGradient>
<linearGradient id="paint9_linear_404_82" x1="27.617" y1="3.9128" x2="33.4215" y2="31.9257" gradientUnits="userSpaceOnUse">
<stop stop-color="#B3DAFE"/>
<stop offset="1" stop-color="#0182FC"/>
</linearGradient>
<linearGradient id="paint10_linear_404_82" x1="32" y1="20.8845" x2="32" y2="3.38025" gradientUnits="userSpaceOnUse">
<stop stop-color="#314DC9" stop-opacity="0"/>
<stop offset="0.2761" stop-color="#304BC4" stop-opacity="0.276"/>
<stop offset="0.5628" stop-color="#2B45B8" stop-opacity="0.563"/>
<stop offset="0.8535" stop-color="#243BA3" stop-opacity="0.854"/>
<stop offset="1" stop-color="#1F3596"/>
</linearGradient>
<linearGradient id="paint11_linear_404_82" x1="52.4735" y1="22.8171" x2="58.8336" y2="29.1771" gradientUnits="userSpaceOnUse">
<stop stop-color="#314DC9" stop-opacity="0"/>
<stop offset="0.2761" stop-color="#304BC4" stop-opacity="0.276"/>
<stop offset="0.5628" stop-color="#2B45B8" stop-opacity="0.563"/>
<stop offset="0.8535" stop-color="#243BA3" stop-opacity="0.854"/>
<stop offset="1" stop-color="#1F3596"/>
</linearGradient>
<linearGradient id="paint12_linear_404_82" x1="11.5265" y1="22.817" x2="5.16644" y2="29.177" gradientUnits="userSpaceOnUse">
<stop stop-color="#314DC9" stop-opacity="0"/>
<stop offset="0.2761" stop-color="#304BC4" stop-opacity="0.276"/>
<stop offset="0.5628" stop-color="#2B45B8" stop-opacity="0.563"/>
<stop offset="0.8535" stop-color="#243BA3" stop-opacity="0.854"/>
<stop offset="1" stop-color="#1F3596"/>
</linearGradient>
<linearGradient id="paint13_linear_404_82" x1="24.2605" y1="26.7141" x2="30.4967" y2="32.9503" gradientUnits="userSpaceOnUse">
<stop stop-color="#B3DAFE"/>
<stop offset="1" stop-color="#0182FC"/>
</linearGradient>
<linearGradient id="paint14_linear_404_82" x1="26.5495" y1="27.1053" x2="26.5495" y2="24.2314" gradientUnits="userSpaceOnUse">
<stop stop-color="#314DC9" stop-opacity="0"/>
<stop offset="0.2761" stop-color="#304BC4" stop-opacity="0.276"/>
<stop offset="0.5628" stop-color="#2B45B8" stop-opacity="0.563"/>
<stop offset="0.8535" stop-color="#243BA3" stop-opacity="0.854"/>
<stop offset="1" stop-color="#1F3596"/>
</linearGradient>
<linearGradient id="paint15_linear_404_82" x1="25.1451" y1="29.0031" x2="22.1723" y2="29.0031" gradientUnits="userSpaceOnUse">
<stop stop-color="#314DC9" stop-opacity="0"/>
<stop offset="0.2761" stop-color="#304BC4" stop-opacity="0.276"/>
<stop offset="0.5628" stop-color="#2B45B8" stop-opacity="0.563"/>
<stop offset="0.8535" stop-color="#243BA3" stop-opacity="0.854"/>
<stop offset="1" stop-color="#1F3596"/>
</linearGradient>
<linearGradient id="paint16_linear_404_82" x1="35.1615" y1="26.7141" x2="41.3976" y2="32.9503" gradientUnits="userSpaceOnUse">
<stop stop-color="#B3DAFE"/>
<stop offset="1" stop-color="#0182FC"/>
</linearGradient>
<linearGradient id="paint17_linear_404_82" x1="37.4505" y1="27.1053" x2="37.4505" y2="24.2314" gradientUnits="userSpaceOnUse">
<stop stop-color="#314DC9" stop-opacity="0"/>
<stop offset="0.2761" stop-color="#304BC4" stop-opacity="0.276"/>
<stop offset="0.5628" stop-color="#2B45B8" stop-opacity="0.563"/>
<stop offset="0.8535" stop-color="#243BA3" stop-opacity="0.854"/>
<stop offset="1" stop-color="#1F3596"/>
</linearGradient>
<linearGradient id="paint18_linear_404_82" x1="36.046" y1="29.0031" x2="33.0732" y2="29.0031" gradientUnits="userSpaceOnUse">
<stop stop-color="#314DC9" stop-opacity="0"/>
<stop offset="0.2761" stop-color="#304BC4" stop-opacity="0.276"/>
<stop offset="0.5628" stop-color="#2B45B8" stop-opacity="0.563"/>
<stop offset="0.8535" stop-color="#243BA3" stop-opacity="0.854"/>
<stop offset="1" stop-color="#1F3596"/>
</linearGradient>
<linearGradient id="paint19_linear_404_82" x1="24.2605" y1="37.429" x2="30.4967" y2="43.6652" gradientUnits="userSpaceOnUse">
<stop stop-color="#B3DAFE"/>
<stop offset="1" stop-color="#0182FC"/>
</linearGradient>
<linearGradient id="paint20_linear_404_82" x1="26.5495" y1="37.8203" x2="26.5495" y2="34.9464" gradientUnits="userSpaceOnUse">
<stop stop-color="#314DC9" stop-opacity="0"/>
<stop offset="0.2761" stop-color="#304BC4" stop-opacity="0.276"/>
<stop offset="0.5628" stop-color="#2B45B8" stop-opacity="0.563"/>
<stop offset="0.8535" stop-color="#243BA3" stop-opacity="0.854"/>
<stop offset="1" stop-color="#1F3596"/>
</linearGradient>
<linearGradient id="paint21_linear_404_82" x1="25.1451" y1="39.7181" x2="22.1723" y2="39.7181" gradientUnits="userSpaceOnUse">
<stop stop-color="#314DC9" stop-opacity="0"/>
<stop offset="0.2761" stop-color="#304BC4" stop-opacity="0.276"/>
<stop offset="0.5628" stop-color="#2B45B8" stop-opacity="0.563"/>
<stop offset="0.8535" stop-color="#243BA3" stop-opacity="0.854"/>
<stop offset="1" stop-color="#1F3596"/>
</linearGradient>
<linearGradient id="paint22_linear_404_82" x1="35.1615" y1="37.429" x2="41.3976" y2="43.6652" gradientUnits="userSpaceOnUse">
<stop stop-color="#B3DAFE"/>
<stop offset="1" stop-color="#0182FC"/>
</linearGradient>
<linearGradient id="paint23_linear_404_82" x1="37.4505" y1="37.8203" x2="37.4505" y2="34.9464" gradientUnits="userSpaceOnUse">
<stop stop-color="#314DC9" stop-opacity="0"/>
<stop offset="0.2761" stop-color="#304BC4" stop-opacity="0.276"/>
<stop offset="0.5628" stop-color="#2B45B8" stop-opacity="0.563"/>
<stop offset="0.8535" stop-color="#243BA3" stop-opacity="0.854"/>
<stop offset="1" stop-color="#1F3596"/>
</linearGradient>
<linearGradient id="paint24_linear_404_82" x1="36.046" y1="39.7181" x2="33.0732" y2="39.7181" gradientUnits="userSpaceOnUse">
<stop stop-color="#314DC9" stop-opacity="0"/>
<stop offset="0.2761" stop-color="#304BC4" stop-opacity="0.276"/>
<stop offset="0.5628" stop-color="#2B45B8" stop-opacity="0.563"/>
<stop offset="0.8535" stop-color="#243BA3" stop-opacity="0.854"/>
<stop offset="1" stop-color="#1F3596"/>
</linearGradient>
</defs>
</svg>
