<svg width="61" height="64" viewBox="0 0 61 64" fill="none" xmlns="http://www.w3.org/2000/svg">
<g filter="url(#filter0_d_404_135)">
<path d="M31.8416 40.5023L30.037 45.2019C29.0698 47.7207 26.2439 48.9785 23.7251 48.0114L20.9678 46.9527C18.449 45.9855 17.1912 43.1596 18.1583 40.6408L19.9628 35.9411L17.0565 34.8252L14.5206 41.4295C13.2984 44.6124 14.8878 48.1836 18.0709 49.4058L24.2358 51.773C27.4187 52.9951 30.9899 51.4057 32.2121 48.2226L34.748 41.6184L31.8416 40.5023Z" fill="url(#paint0_linear_404_135)"/>
<path d="M31.8416 40.5023L30.037 45.2019C29.0698 47.7207 26.2439 48.9785 23.7251 48.0114L20.9678 46.9527C18.449 45.9855 17.1912 43.1596 18.1583 40.6408L19.9628 35.9411L17.0565 34.8252L14.5206 41.4295C13.2984 44.6124 14.8878 48.1836 18.0709 49.4058L24.2358 51.773C27.4187 52.9951 30.9899 51.4057 32.2121 48.2226L34.748 41.6184L31.8416 40.5023Z" fill="url(#paint1_linear_404_135)"/>
<path d="M31.8416 40.5023L30.037 45.2019C29.0698 47.7207 26.2439 48.9785 23.7251 48.0114L20.9678 46.9527C18.449 45.9855 17.1912 43.1596 18.1583 40.6408L19.9628 35.9411L17.0565 34.8252L14.5206 41.4295C13.2984 44.6124 14.8878 48.1836 18.0709 49.4058L24.2358 51.773C27.4187 52.9951 30.9899 51.4057 32.2121 48.2226L34.748 41.6184L31.8416 40.5023Z" fill="url(#paint2_linear_404_135)"/>
<path d="M30.037 45.2021C29.0698 47.7209 26.2439 48.9787 23.7251 48.0116L21.5547 47.1781V50.7435L24.2358 51.773C27.4188 52.9951 30.9899 51.4057 32.2121 48.2227L34.748 41.6184L31.8417 40.5024L30.037 45.2021Z" fill="url(#paint3_linear_404_135)"/>
<path d="M33.6542 39.3106H14.9785C8.91545 39.3106 4.00024 34.3955 4.00024 28.3323C4.00024 22.2692 8.91534 17.354 14.9785 17.354H33.6542V39.3106Z" fill="url(#paint4_linear_404_135)"/>
<path d="M33.6542 39.3106H14.9785C8.91545 39.3106 4.00024 34.3955 4.00024 28.3323C4.00024 22.2692 8.91534 17.354 14.9785 17.354H33.6542V39.3106Z" fill="url(#paint5_linear_404_135)"/>
<path d="M36.8962 7.81672L28.7371 10.975L17.0901 15.4831C15.0987 16.2539 13.6255 17.9752 13.1838 20.0644C12.6672 22.5071 12.3818 25.1875 12.3818 27.9999C12.3818 30.8114 12.6672 33.4917 13.1839 35.9343C13.6258 38.0232 15.0986 39.7445 17.0898 40.5154L28.7372 45.0247L36.8963 48.183C40.0091 49.4284 43.4182 50.4762 47.0586 51.2899V4.7085C43.4182 5.52214 40.009 6.57126 36.8962 7.81672Z" fill="url(#paint6_linear_404_135)"/>
<path d="M16.0071 33.2822C15.2948 33.2822 14.7175 32.7049 14.7175 31.9927V24.0078C14.7175 23.2955 15.2949 22.7183 16.0071 22.7183C16.7193 22.7183 17.2966 23.2957 17.2966 24.0078V31.9927C17.2966 32.7049 16.7192 33.2822 16.0071 33.2822Z" fill="url(#paint7_linear_404_135)"/>
<path d="M36.8962 7.81672L28.7371 10.975L17.0901 15.4831C15.0987 16.2539 13.6255 17.9752 13.1838 20.0644C12.6672 22.5071 12.3818 25.1875 12.3818 27.9999C12.3818 30.8114 12.6672 33.4917 13.1839 35.9343C13.6258 38.0232 15.0986 39.7445 17.0898 40.5154L28.7372 45.0247L36.8963 48.183C40.0091 49.4284 43.4182 50.4762 47.0586 51.2899V4.7085C43.4182 5.52214 40.009 6.57126 36.8962 7.81672Z" fill="url(#paint8_linear_404_135)"/>
<path d="M28.7371 10.976L21.0178 13.9638V42.037L28.7371 45.0255L36.8961 48.1838C40.0089 49.4293 43.418 50.4771 47.0585 51.2906V4.70947C43.4181 5.52311 40.0089 6.57224 36.8961 7.81769L28.7371 10.976Z" fill="url(#paint9_linear_404_135)"/>
<path d="M43.3386 56C50.8598 56 56.957 43.464 56.957 28C56.957 12.536 50.8598 0 43.3386 0C35.8174 0 29.7202 12.536 29.7202 28C29.7202 43.464 35.8174 56 43.3386 56Z" fill="url(#paint10_linear_404_135)"/>
<path d="M43.3386 0C40.6294 0 38.1051 1.62684 35.9839 4.43078V51.5692C38.1051 54.3732 40.6294 56 43.3386 56C50.8599 56 56.957 43.464 56.957 28C56.957 12.536 50.8599 0 43.3386 0Z" fill="url(#paint11_linear_404_135)"/>
<path d="M44.3516 50.927C49.9506 50.927 54.4896 40.6623 54.4896 28.0001C54.4896 15.3379 49.9506 5.07324 44.3516 5.07324C38.7525 5.07324 34.2136 15.3379 34.2136 28.0001C34.2136 40.6623 38.7525 50.927 44.3516 50.927Z" fill="url(#paint12_linear_404_135)"/>
<path d="M44.3516 50.927C49.9506 50.927 54.4896 40.6623 54.4896 28.0001C54.4896 15.3379 49.9506 5.07324 44.3516 5.07324C38.7525 5.07324 34.2136 15.3379 34.2136 28.0001C34.2136 40.6623 38.7525 50.927 44.3516 50.927Z" fill="url(#paint13_linear_404_135)"/>
<path d="M29.7432 29.6094C30.1487 44.3244 36.0801 56.0001 43.3387 56.0001C50.5973 56.0001 56.5286 44.3244 56.9342 29.6094H29.7432Z" fill="url(#paint14_linear_404_135)"/>
<path d="M54.4426 30.2116L45.75 21.519H34.6253C34.358 23.5743 34.2139 25.749 34.2139 28.0001C34.2139 40.6622 38.7528 50.9269 44.3517 50.9269C49.6208 50.9269 53.9505 41.836 54.4426 30.2116Z" fill="url(#paint15_linear_404_135)"/>
<path d="M39.0588 18.6841C37.566 18.6841 36.1562 19.0371 34.9054 19.6615C34.9054 19.6615 34.0632 22.25 34.0632 27.9999C34.0632 33.7497 34.9054 36.3383 34.9054 36.3383C36.1562 36.9626 37.566 37.3157 39.0588 37.3157C44.2038 37.3157 48.3746 33.1449 48.3746 27.9999C48.3746 22.8549 44.2037 18.6841 39.0588 18.6841Z" fill="url(#paint16_linear_404_135)"/>
<path d="M39.0588 18.6841C37.566 18.6841 36.1562 19.0371 34.9054 19.6615C34.9054 19.6615 34.0632 22.25 34.0632 27.9999C34.0632 33.7497 34.9054 36.3383 34.9054 36.3383C36.1562 36.9626 37.566 37.3157 39.0588 37.3157C44.2038 37.3157 48.3746 33.1449 48.3746 27.9999C48.3746 22.8549 44.2037 18.6841 39.0588 18.6841Z" fill="url(#paint17_linear_404_135)"/>
<path d="M34.0632 27.9999C34.0632 33.7498 34.9054 36.3383 34.9054 36.3383C36.1562 36.9626 37.566 37.3157 39.0588 37.3157C44.2038 37.3157 48.3746 33.1449 48.3746 27.9999C48.3746 27.2649 48.2868 26.5506 48.1259 25.8647H34.1047C34.0785 26.5214 34.0632 27.2315 34.0632 27.9999Z" fill="url(#paint18_linear_404_135)"/>
<path d="M39.0588 18.6841C38.9809 18.6841 38.9041 18.689 38.8267 18.6909V37.3088C38.9041 37.3106 38.9808 37.3156 39.0588 37.3156C44.2038 37.3156 48.3746 33.1448 48.3746 27.9998C48.3746 22.8548 44.2036 18.6841 39.0588 18.6841Z" fill="url(#paint19_linear_404_135)"/>
</g>
<defs>
<filter id="filter0_d_404_135" x="0" y="0" width="60.957" height="64" filterUnits="userSpaceOnUse" color-interpolation-filters="sRGB">
<feFlood flood-opacity="0" result="BackgroundImageFix"/>
<feColorMatrix in="SourceAlpha" type="matrix" values="0 0 0 0 0 0 0 0 0 0 0 0 0 0 0 0 0 0 127 0" result="hardAlpha"/>
<feOffset dy="4"/>
<feGaussianBlur stdDeviation="2"/>
<feComposite in2="hardAlpha" operator="out"/>
<feColorMatrix type="matrix" values="0 0 0 0 0 0 0 0 0 0 0 0 0 0 0 0 0 0 0.25 0"/>
<feBlend mode="normal" in2="BackgroundImageFix" result="effect1_dropShadow_404_135"/>
<feBlend mode="normal" in="SourceGraphic" in2="effect1_dropShadow_404_135" result="shape"/>
</filter>
<linearGradient id="paint0_linear_404_135" x1="23.3895" y1="45.9413" x2="22.3644" y2="49.5782" gradientUnits="userSpaceOnUse">
<stop stop-color="#FFA1AE"/>
<stop offset="1" stop-color="#FF4565"/>
</linearGradient>
<linearGradient id="paint1_linear_404_135" x1="22.1065" y1="47.0986" x2="24.5203" y2="41.7882" gradientUnits="userSpaceOnUse">
<stop stop-color="#FE0364" stop-opacity="0"/>
<stop offset="0.2343" stop-color="#F90362" stop-opacity="0.234"/>
<stop offset="0.5173" stop-color="#EA035B" stop-opacity="0.517"/>
<stop offset="0.8243" stop-color="#D20250" stop-opacity="0.824"/>
<stop offset="1" stop-color="#C00148"/>
</linearGradient>
<linearGradient id="paint2_linear_404_135" x1="22.344" y1="47.9871" x2="21.4604" y2="50.4821" gradientUnits="userSpaceOnUse">
<stop stop-color="#FE0364" stop-opacity="0"/>
<stop offset="0.2343" stop-color="#F90362" stop-opacity="0.234"/>
<stop offset="0.5173" stop-color="#EA035B" stop-opacity="0.517"/>
<stop offset="0.8243" stop-color="#D20250" stop-opacity="0.824"/>
<stop offset="1" stop-color="#C00148"/>
</linearGradient>
<linearGradient id="paint3_linear_404_135" x1="28.5214" y1="46.4083" x2="32.2762" y2="48.7148" gradientUnits="userSpaceOnUse">
<stop stop-color="#FE0364" stop-opacity="0"/>
<stop offset="0.2343" stop-color="#F90362" stop-opacity="0.234"/>
<stop offset="0.5173" stop-color="#EA035B" stop-opacity="0.517"/>
<stop offset="0.8243" stop-color="#D20250" stop-opacity="0.824"/>
<stop offset="1" stop-color="#C00148"/>
</linearGradient>
<linearGradient id="paint4_linear_404_135" x1="18.8272" y1="21.216" x2="18.8272" y2="35.5657" gradientUnits="userSpaceOnUse">
<stop stop-color="#5A5A5A"/>
<stop offset="1" stop-color="#444444"/>
</linearGradient>
<linearGradient id="paint5_linear_404_135" x1="7.33892" y1="24.7824" x2="14.3562" y2="26.3028" gradientUnits="userSpaceOnUse">
<stop stop-color="#433F43" stop-opacity="0"/>
<stop offset="1" stop-color="#1A1A1A"/>
</linearGradient>
<linearGradient id="paint6_linear_404_135" x1="29.7202" y1="17.6764" x2="29.7202" y2="35.4482" gradientUnits="userSpaceOnUse">
<stop stop-color="#FFA1AE"/>
<stop offset="1" stop-color="#FF4565"/>
</linearGradient>
<linearGradient id="paint7_linear_404_135" x1="16.7656" y1="28.0002" x2="13.9802" y2="28.0002" gradientUnits="userSpaceOnUse">
<stop stop-color="#FFA1AE"/>
<stop offset="1" stop-color="#FF4565"/>
</linearGradient>
<linearGradient id="paint8_linear_404_135" x1="31.68" y1="31.1452" x2="27.5865" y2="42.8408" gradientUnits="userSpaceOnUse">
<stop stop-color="#FE0364" stop-opacity="0"/>
<stop offset="0.2343" stop-color="#F90362" stop-opacity="0.234"/>
<stop offset="0.5173" stop-color="#EA035B" stop-opacity="0.517"/>
<stop offset="0.8243" stop-color="#D20250" stop-opacity="0.824"/>
<stop offset="1" stop-color="#C00148"/>
</linearGradient>
<linearGradient id="paint9_linear_404_135" x1="25.3269" y1="27.7064" x2="33.9815" y2="27.8234" gradientUnits="userSpaceOnUse">
<stop stop-color="#FE0364" stop-opacity="0"/>
<stop offset="0.2343" stop-color="#F90362" stop-opacity="0.234"/>
<stop offset="0.5173" stop-color="#EA035B" stop-opacity="0.517"/>
<stop offset="0.8243" stop-color="#D20250" stop-opacity="0.824"/>
<stop offset="1" stop-color="#C00148"/>
</linearGradient>
<linearGradient id="paint10_linear_404_135" x1="31.1079" y1="28" x2="56.4386" y2="28" gradientUnits="userSpaceOnUse">
<stop stop-color="#FFA1AE"/>
<stop offset="1" stop-color="#FF4565"/>
</linearGradient>
<linearGradient id="paint11_linear_404_135" x1="46.6045" y1="28" x2="57.9422" y2="28" gradientUnits="userSpaceOnUse">
<stop stop-color="#FE0364" stop-opacity="0"/>
<stop offset="0.2343" stop-color="#F90362" stop-opacity="0.234"/>
<stop offset="0.5173" stop-color="#EA035B" stop-opacity="0.517"/>
<stop offset="0.8243" stop-color="#D20250" stop-opacity="0.824"/>
<stop offset="1" stop-color="#C00148"/>
</linearGradient>
<linearGradient id="paint12_linear_404_135" x1="20.3582" y1="22.6757" x2="58.5498" y2="31.1509" gradientUnits="userSpaceOnUse">
<stop stop-color="#FE0364" stop-opacity="0"/>
<stop offset="0.2343" stop-color="#F90362" stop-opacity="0.234"/>
<stop offset="0.5173" stop-color="#EA035B" stop-opacity="0.517"/>
<stop offset="0.8243" stop-color="#D20250" stop-opacity="0.824"/>
<stop offset="1" stop-color="#C00148"/>
</linearGradient>
<linearGradient id="paint13_linear_404_135" x1="48.5355" y1="28.0001" x2="34.0617" y2="28.0001" gradientUnits="userSpaceOnUse">
<stop stop-color="#FE0364" stop-opacity="0"/>
<stop offset="0.2343" stop-color="#F90362" stop-opacity="0.234"/>
<stop offset="0.5173" stop-color="#EA035B" stop-opacity="0.517"/>
<stop offset="0.8243" stop-color="#D20250" stop-opacity="0.824"/>
<stop offset="1" stop-color="#C00148"/>
</linearGradient>
<linearGradient id="paint14_linear_404_135" x1="45.8259" y1="39.7305" x2="54.3546" y2="51.3167" gradientUnits="userSpaceOnUse">
<stop stop-color="#FE0364" stop-opacity="0"/>
<stop offset="0.2343" stop-color="#F90362" stop-opacity="0.234"/>
<stop offset="0.5173" stop-color="#EA035B" stop-opacity="0.517"/>
<stop offset="0.8243" stop-color="#D20250" stop-opacity="0.824"/>
<stop offset="1" stop-color="#C00148"/>
</linearGradient>
<linearGradient id="paint15_linear_404_135" x1="49.1557" y1="41.4665" x2="40.0369" y2="32.0258" gradientUnits="userSpaceOnUse">
<stop stop-color="#FE0364" stop-opacity="0"/>
<stop offset="0.2343" stop-color="#F90362" stop-opacity="0.234"/>
<stop offset="0.5173" stop-color="#EA035B" stop-opacity="0.517"/>
<stop offset="0.8243" stop-color="#D20250" stop-opacity="0.824"/>
<stop offset="1" stop-color="#C00148"/>
</linearGradient>
<linearGradient id="paint16_linear_404_135" x1="37.2194" y1="24.0137" x2="43.2806" y2="33.2934" gradientUnits="userSpaceOnUse">
<stop stop-color="#F5FBFF"/>
<stop offset="1" stop-color="#DBD5EF"/>
</linearGradient>
<linearGradient id="paint17_linear_404_135" x1="42.8174" y1="27.4449" x2="33.3768" y2="28.8396" gradientUnits="userSpaceOnUse">
<stop stop-color="#DBD5EF" stop-opacity="0"/>
<stop offset="0.2853" stop-color="#D9D2EE" stop-opacity="0.285"/>
<stop offset="0.4739" stop-color="#D4C9E9" stop-opacity="0.474"/>
<stop offset="0.6346" stop-color="#CBBAE2" stop-opacity="0.635"/>
<stop offset="0.7795" stop-color="#BFA5D7" stop-opacity="0.78"/>
<stop offset="0.9126" stop-color="#AF8ACA" stop-opacity="0.913"/>
<stop offset="1" stop-color="#A274BF"/>
</linearGradient>
<linearGradient id="paint18_linear_404_135" x1="41.2189" y1="28.5467" x2="41.2189" y2="37.5581" gradientUnits="userSpaceOnUse">
<stop stop-color="#DBD5EF" stop-opacity="0"/>
<stop offset="0.2853" stop-color="#D9D2EE" stop-opacity="0.285"/>
<stop offset="0.4739" stop-color="#D4C9E9" stop-opacity="0.474"/>
<stop offset="0.6346" stop-color="#CBBAE2" stop-opacity="0.635"/>
<stop offset="0.7795" stop-color="#BFA5D7" stop-opacity="0.78"/>
<stop offset="0.9126" stop-color="#AF8ACA" stop-opacity="0.913"/>
<stop offset="1" stop-color="#A274BF"/>
</linearGradient>
<linearGradient id="paint19_linear_404_135" x1="38.9144" y1="26.5611" x2="47.3894" y2="33.6416" gradientUnits="userSpaceOnUse">
<stop stop-color="#DBD5EF" stop-opacity="0"/>
<stop offset="0.2853" stop-color="#D9D2EE" stop-opacity="0.285"/>
<stop offset="0.4739" stop-color="#D4C9E9" stop-opacity="0.474"/>
<stop offset="0.6346" stop-color="#CBBAE2" stop-opacity="0.635"/>
<stop offset="0.7795" stop-color="#BFA5D7" stop-opacity="0.78"/>
<stop offset="0.9126" stop-color="#AF8ACA" stop-opacity="0.913"/>
<stop offset="1" stop-color="#A274BF"/>
</linearGradient>
</defs>
</svg>
