<svg width="64" height="64" viewBox="0 0 64 64" fill="none" xmlns="http://www.w3.org/2000/svg">
<g filter="url(#filter0_d_408_205)">
<path d="M49.3238 28V46.4848L48.7967 45.9577C47.7138 44.8748 45.9152 44.8486 44.8529 45.9519C43.8233 47.0214 43.8356 48.7231 44.8899 49.7774L50.4457 55.3332C51.3347 56.2222 52.7761 56.2222 53.6651 55.3332L59.1773 49.8209C60.2603 48.738 60.2864 46.9394 59.1831 45.8772C58.1137 44.8475 56.4119 44.8599 55.3576 45.9142L54.787 46.4848V28C54.787 15.8521 45.2225 5.89615 33.2285 5.26725C32.5742 5.2329 32.0227 5.74861 32.0227 6.40376V9.58756C32.0227 10.1893 32.4874 10.6949 33.0881 10.7315C42.1339 11.2837 49.3238 18.818 49.3238 28Z" fill="#6CF5C2"/>
<path d="M59.1834 45.8773C58.1139 44.8476 56.4121 44.86 55.3579 45.9142L54.7873 46.4848V28C54.7873 25.8479 54.4857 23.765 53.925 21.79C53.5835 26.6394 51.9327 31.1265 49.3239 34.9018V46.4848L48.7968 45.9578C47.7139 44.8748 45.9153 44.8486 44.8531 45.952C43.8234 47.0214 43.8358 48.7232 44.89 49.7775L50.4458 55.3333C51.3348 56.2223 52.7762 56.2223 53.6652 55.3333L59.1775 49.821C60.2605 48.7381 60.2866 46.9394 59.1834 45.8773Z" fill="#00F2A6"/>
<path d="M14.6767 28V9.51519L15.2038 10.0423C16.2867 11.1252 18.0853 11.1513 19.1475 10.0481C20.1772 8.97859 20.1648 7.27683 19.1105 6.22256L13.5546 0.66675C12.6656 -0.22225 11.2243 -0.22225 10.3353 0.66675L4.82288 6.17903C3.73996 7.26195 3.71382 9.06052 4.81709 10.1228C5.88656 11.1524 7.58832 11.1401 8.64259 10.0858L9.2132 9.51519V28C9.2132 40.1478 18.7777 50.1038 30.7717 50.7327C31.4259 50.7671 31.9774 50.2514 31.9774 49.5962V46.4124C31.9774 45.8106 31.5127 45.3051 30.912 45.2685C21.8666 44.7162 14.6767 37.1819 14.6767 28Z" fill="#FD8087"/>
<path d="M30.9122 45.2681C26.5498 45.0018 22.6193 43.1111 19.7185 40.1953C17.797 40.8641 15.7751 41.3184 13.6805 41.5267C17.6074 46.8244 23.7759 50.3655 30.772 50.7324C31.4263 50.7667 31.9778 50.251 31.9778 49.5959V46.4121C31.9776 45.8104 31.5128 45.3049 30.9122 45.2681Z" fill="#FE646F"/>
</g>
<defs>
<filter id="filter0_d_408_205" x="0" y="0" width="64.0002" height="64" filterUnits="userSpaceOnUse" color-interpolation-filters="sRGB">
<feFlood flood-opacity="0" result="BackgroundImageFix"/>
<feColorMatrix in="SourceAlpha" type="matrix" values="0 0 0 0 0 0 0 0 0 0 0 0 0 0 0 0 0 0 127 0" result="hardAlpha"/>
<feOffset dy="4"/>
<feGaussianBlur stdDeviation="2"/>
<feComposite in2="hardAlpha" operator="out"/>
<feColorMatrix type="matrix" values="0 0 0 0 0 0 0 0 0 0 0 0 0 0 0 0 0 0 0.25 0"/>
<feBlend mode="normal" in2="BackgroundImageFix" result="effect1_dropShadow_408_205"/>
<feBlend mode="normal" in="SourceGraphic" in2="effect1_dropShadow_408_205" result="shape"/>
</filter>
</defs>
</svg>
