<svg width="65" height="65" viewBox="0 0 65 65" fill="none" xmlns="http://www.w3.org/2000/svg">
<g filter="url(#filter0_d_404_4)">
<path d="M7.99219 18.189H55.9969V52.3577H7.99219V18.189Z" fill="url(#paint0_linear_404_4)"/>
<path d="M7.99219 18.189H55.9969V38.0843H7.99219V18.189Z" fill="url(#paint1_linear_404_4)"/>
<path d="M7.99219 38.0845H55.9969V52.3579H7.99219V38.0845Z" fill="url(#paint2_linear_404_4)"/>
<path d="M34.9751 18.189H56.0079V52.3577H34.9751V18.189Z" fill="url(#paint3_linear_404_4)"/>
<path d="M40.5093 40.8623H54.2468V49.4482H40.5093V40.8623Z" fill="url(#paint4_linear_404_4)"/>
<path d="M40.5093 40.8623H54.2468V49.4482H40.5093V40.8623Z" fill="url(#paint5_linear_404_4)"/>
<path d="M15.6485 30.9312H29.1345C29.9657 30.9312 30.6329 31.6093 30.6329 32.4296V52.3577H14.1392V32.4296C14.1392 31.5983 14.8173 30.9312 15.6485 30.9312Z" fill="url(#paint6_linear_404_4)"/>
<path d="M15.6485 30.9312H29.1345C29.9657 30.9312 30.6329 31.6093 30.6329 32.4296V52.3577H14.1392V32.4296C14.1392 31.5983 14.8173 30.9312 15.6485 30.9312Z" fill="url(#paint7_linear_404_4)"/>
<path d="M15.6485 30.9312H29.1345C29.9657 30.9312 30.6329 31.6093 30.6329 32.4296V52.3577H14.1392V32.4296C14.1392 31.5983 14.8173 30.9312 15.6485 30.9312Z" fill="url(#paint8_linear_404_4)"/>
<path d="M29.1345 30.9312H22.397V52.3577H30.6438V32.4296C30.6329 31.5983 29.9548 30.9312 29.1345 30.9312Z" fill="url(#paint9_linear_404_4)"/>
<path d="M30.6329 32.4296C30.6329 31.5983 29.9548 30.9312 29.1345 30.9312H28.2376L14.1392 45.0187V52.3577H30.6329V32.4296Z" fill="url(#paint10_linear_404_4)"/>
<path d="M5.36719 49.8208H58.6438C59.3984 49.8208 60.0109 50.4333 60.0109 51.188V54.6442C60.0109 55.3989 59.3984 56.0114 58.6438 56.0114H5.36719C4.6125 56.0005 4 55.388 4 54.6333V51.1771C4 50.4224 4.6125 49.8208 5.36719 49.8208Z" fill="url(#paint11_linear_404_4)"/>
<path d="M60 54.633V51.1768C60 50.4221 59.3875 49.8096 58.6328 49.8096H39.7875L38.9453 50.3893V53.3314L41.6031 55.9893H58.6328C59.3875 56.0002 60 55.3877 60 54.633Z" fill="url(#paint12_linear_404_4)"/>
<path d="M60 54.633V51.1768C60 50.4221 59.3875 49.8096 58.6328 49.8096H39.7875L38.9453 50.3893V53.3314L41.6031 55.9893H58.6328C59.3875 56.0002 60 55.3877 60 54.633Z" fill="url(#paint13_linear_404_4)"/>
<path d="M58.6329 49.8203H47.6079V56H58.6438C59.3985 56 60.011 55.3875 60.011 54.6328V51.1766C60.0001 50.4219 59.3876 49.8203 58.6329 49.8203Z" fill="url(#paint14_linear_404_4)"/>
<path d="M57.5718 56.0001L54.203 52.6313L52.7593 54.0751V56.0001H57.5718Z" fill="url(#paint15_linear_404_4)"/>
<path d="M19.728 12.1733H22.9218V17.8718H19.728V12.1733Z" fill="url(#paint16_linear_404_4)"/>
<path d="M41.0781 12.1733H44.2719V17.8718H41.0781V12.1733Z" fill="url(#paint17_linear_404_4)"/>
<path d="M5.36719 16.2095H58.6438C59.3984 16.2095 60.0109 16.822 60.0109 17.5767V21.0329C60.0109 21.7876 59.3984 22.4001 58.6438 22.4001H5.36719C4.6125 22.4001 4 21.7876 4 21.0329V17.5767C4 16.822 4.6125 16.2095 5.36719 16.2095Z" fill="url(#paint18_linear_404_4)"/>
<path d="M58.6329 16.2095H47.6079V22.3892H58.6438C59.3985 22.3892 60.011 21.7767 60.011 21.022V17.5657C60.0001 16.822 59.3876 16.2095 58.6329 16.2095Z" fill="url(#paint19_linear_404_4)"/>
<path d="M43.3203 53.6265H52.7594V55.9999H43.3203V53.6265Z" fill="url(#paint20_linear_404_4)"/>
<path d="M17.0265 0H46.9624C48.3405 0 49.4562 1.11562 49.4562 2.49375V11.4297C49.4562 12.8078 48.3405 13.9234 46.9624 13.9234H17.0265C15.6483 13.9234 14.5327 12.8078 14.5327 11.4297V2.49375C14.5327 1.11562 15.6483 0 17.0265 0Z" fill="url(#paint21_linear_404_4)"/>
<path d="M14.5327 4.61572V11.4298C14.5327 12.8079 15.6483 13.9235 17.0265 13.9235H46.9624C48.3405 13.9235 49.4562 12.8079 49.4562 11.4298V4.61572H14.5327Z" fill="url(#paint22_linear_404_4)"/>
<path d="M46.9734 0H32.1641V13.9234H46.9734C48.3516 13.9234 49.4672 12.8078 49.4672 11.4297V2.49375C49.4672 1.11562 48.3516 0 46.9734 0Z" fill="url(#paint23_linear_404_4)"/>
<path d="M19.2795 9.59228C19.4108 9.59228 19.5311 9.58135 19.6624 9.54854C19.7936 9.52666 19.9139 9.48291 20.0124 9.41728C20.1217 9.3626 20.1983 9.2751 20.2639 9.1876C20.3295 9.08916 20.3624 8.97979 20.3624 8.84854C20.3624 8.61885 20.2749 8.43291 20.0999 8.27978C19.9249 8.12666 19.7061 7.98447 19.4436 7.85322C19.1811 7.72197 18.8967 7.59072 18.5795 7.44853C18.2733 7.30635 17.978 7.14229 17.7155 6.93447C17.453 6.72666 17.2342 6.48603 17.0592 6.19072C16.8842 5.89541 16.7967 5.53447 16.7967 5.08604C16.7967 4.67041 16.8842 4.30947 17.0483 4.01416C17.2124 3.71885 17.4311 3.47822 17.7045 3.29229C17.978 3.10635 18.2842 2.9751 18.6233 2.8876C18.9733 2.8001 19.3124 2.75635 19.6733 2.75635C19.8264 2.75635 20.0233 2.76729 20.2749 2.78916C20.5264 2.81104 20.778 2.85479 21.0186 2.92041C21.2592 2.98604 21.467 3.08447 21.653 3.21572C21.828 3.34697 21.9155 3.52197 21.9155 3.74072C21.9155 3.81729 21.9045 3.90479 21.8717 4.01416C21.8499 4.12354 21.8061 4.22197 21.7514 4.32041C21.6967 4.41885 21.6202 4.49541 21.5327 4.57197C21.4452 4.64853 21.3358 4.67041 21.2155 4.67041C21.1061 4.67041 21.0186 4.64853 20.9311 4.60478C20.8436 4.56103 20.7452 4.50635 20.6358 4.4626C20.5264 4.40791 20.3952 4.36416 20.253 4.32041C20.0999 4.27666 19.9139 4.25479 19.6842 4.25479C19.2795 4.25479 18.9952 4.32041 18.8202 4.4626C18.6452 4.60478 18.5577 4.75791 18.5577 4.93291C18.5577 5.11885 18.6452 5.28291 18.8202 5.40322C18.9952 5.53447 19.2139 5.65478 19.4764 5.7751C19.7389 5.89541 20.0233 6.02666 20.3405 6.15791C20.6467 6.3001 20.942 6.4751 21.2045 6.69385C21.467 6.9126 21.6858 7.1751 21.8608 7.49229C22.0358 7.80947 22.1233 8.20322 22.1233 8.67354C22.1233 9.07822 22.0577 9.43916 21.9155 9.74541C21.7733 10.0517 21.5764 10.3142 21.3358 10.5329C21.0842 10.7407 20.7889 10.9048 20.4389 11.0142C20.0889 11.1235 19.717 11.1782 19.3124 11.1782C18.9405 11.1782 18.5905 11.1345 18.2624 11.0579C17.9342 10.9704 17.6389 10.872 17.3983 10.7298C17.1467 10.5985 16.9608 10.4345 16.8186 10.2595C16.6764 10.0845 16.5999 9.89854 16.5999 9.7126C16.5999 9.61416 16.6217 9.51572 16.6655 9.40635C16.7092 9.29697 16.7639 9.19853 16.8295 9.1001C16.8952 9.00166 16.9827 8.9251 17.0702 8.85947C17.1686 8.79385 17.267 8.76103 17.3655 8.76103C17.4967 8.76103 17.628 8.80479 17.7374 8.89229C17.8577 8.97979 17.978 9.07822 18.1202 9.17666C18.2624 9.28604 18.4155 9.37354 18.6014 9.46104C18.7983 9.54854 19.017 9.59228 19.2795 9.59228Z" fill="url(#paint24_linear_404_4)"/>
<path d="M27.8654 2.83301C28.0513 2.83301 28.1826 2.92051 28.2701 3.08457C28.3576 3.24863 28.3904 3.42363 28.3904 3.60957C28.3904 3.82832 28.3466 4.01426 28.2591 4.16738C28.1716 4.32051 28.0404 4.40801 27.8654 4.40801H26.3123V10.5221C26.3123 10.6971 26.2248 10.8393 26.0388 10.9268C25.8529 11.0143 25.656 11.058 25.4373 11.058C25.2185 11.058 25.0216 11.0143 24.8357 10.9268C24.6498 10.8393 24.5623 10.6971 24.5623 10.5221V4.40801H23.0091C22.8341 4.40801 22.7029 4.33145 22.6154 4.16738C22.5279 4.00332 22.4841 3.81738 22.4841 3.60957C22.4841 3.42363 22.5279 3.24863 22.6044 3.08457C22.6919 2.92051 22.8232 2.83301 23.0091 2.83301H27.8654Z" fill="url(#paint25_linear_404_4)"/>
<path d="M31.6388 11.1233C31.2451 11.1233 30.8841 11.0796 30.556 10.9812C30.2169 10.8827 29.9326 10.7296 29.681 10.5218C29.4294 10.314 29.2435 10.0296 29.1013 9.70146C28.9591 9.3624 28.8826 8.95771 28.8826 8.46553V5.47959C28.8826 4.99834 28.9591 4.59365 29.1013 4.25459C29.2435 3.91553 29.4404 3.64209 29.681 3.42334C29.9326 3.20459 30.2169 3.05146 30.556 2.96396C30.8951 2.86553 31.256 2.82178 31.6388 2.82178C32.0326 2.82178 32.3935 2.86553 32.7326 2.96396C33.0716 3.0624 33.3669 3.21553 33.6076 3.42334C33.8591 3.64209 34.0451 3.91553 34.1982 4.25459C34.3404 4.59365 34.4169 4.99834 34.4169 5.47959V8.46553C34.4169 8.95771 34.3404 9.3624 34.1982 9.70146C34.056 10.0405 33.8591 10.314 33.6076 10.5218C33.356 10.7405 33.0716 10.8937 32.7326 10.9812C32.3826 11.0687 32.0216 11.1233 31.6388 11.1233ZM32.6451 5.47959C32.6451 5.08584 32.5576 4.80146 32.3716 4.62646C32.1966 4.45146 31.9451 4.35303 31.6279 4.35303C31.3107 4.35303 31.0701 4.44053 30.8951 4.62646C30.7201 4.80146 30.6326 5.09678 30.6326 5.47959V8.46553C30.6326 8.85928 30.7201 9.14365 30.8951 9.31865C31.0701 9.49365 31.3216 9.59209 31.6279 9.59209C31.9341 9.59209 32.1857 9.50459 32.3716 9.31865C32.5466 9.14365 32.6451 8.84834 32.6451 8.46553V5.47959Z" fill="url(#paint26_linear_404_4)"/>
<path d="M35.5327 3.35801C35.5327 3.21582 35.5765 3.09551 35.6749 2.98613C35.7733 2.87676 35.9046 2.83301 36.0687 2.83301H38.3983C38.7812 2.83301 39.1421 2.87676 39.4812 2.95332C39.8202 3.02988 40.1155 3.16113 40.3671 3.35801C40.6187 3.54395 40.8155 3.79551 40.9577 4.10176C41.0999 4.40801 41.1765 4.79082 41.1765 5.2502C41.1765 5.88457 41.0452 6.37676 40.7937 6.74863C40.5312 7.12051 40.214 7.38301 39.8202 7.53613L41.1983 10.0189C41.2312 10.0736 41.253 10.1502 41.253 10.2268C41.253 10.3361 41.2202 10.4455 41.1546 10.5549C41.089 10.6643 41.0015 10.7627 40.8921 10.8502C40.7827 10.9377 40.6733 11.0033 40.5421 11.058C40.4108 11.1127 40.2796 11.1346 40.1593 11.1346C40.0499 11.1346 39.9405 11.1127 39.8421 11.058C39.7437 11.0033 39.6562 10.9268 39.6015 10.8064L38.0593 7.80957H37.3155V10.5221C37.3155 10.6971 37.228 10.8393 37.0421 10.9268C36.8562 11.0143 36.6593 11.058 36.4405 11.058C36.2218 11.058 36.0249 11.0143 35.839 10.9268C35.653 10.8393 35.5655 10.6971 35.5655 10.5221L35.5327 3.35801ZM37.2827 4.35332V6.45332H38.3983C38.7155 6.45332 38.9562 6.37676 39.1421 6.22363C39.3171 6.07051 39.4155 5.79707 39.4155 5.40332C39.4155 5.00957 39.328 4.73613 39.1421 4.58301C38.9671 4.42988 38.7155 4.35332 38.3983 4.35332H37.2827Z" fill="url(#paint27_linear_404_4)"/>
<path d="M43.8562 6.25645H45.5406C45.7156 6.25645 45.8468 6.32207 45.9343 6.46426C46.0218 6.60645 46.0656 6.75957 46.0656 6.94551C46.0656 7.09863 46.0218 7.24082 45.9453 7.39395C45.8578 7.53613 45.7265 7.6127 45.5406 7.6127H43.8562V9.52676H46.875C47.05 9.52676 47.1812 9.60332 47.2687 9.75645C47.3562 9.90957 47.4 10.0955 47.4 10.3033C47.4 10.4783 47.3562 10.6533 47.2796 10.8174C47.1921 10.9814 47.0609 11.058 46.875 11.058H42.8718C42.675 11.058 42.5 11.0143 42.3468 10.9268C42.1937 10.8393 42.1062 10.6971 42.1062 10.5221V3.36895C42.1062 3.19395 42.1828 3.05176 42.3468 2.96426C42.5 2.87676 42.6859 2.83301 42.8718 2.83301H46.875C47.0609 2.83301 47.1921 2.90957 47.2796 3.07363C47.3671 3.2377 47.4 3.40176 47.4 3.5877C47.4 3.79551 47.3562 3.98145 47.2687 4.13457C47.1812 4.2877 47.05 4.36426 46.875 4.36426H43.8562C43.8562 4.35332 43.8562 6.25645 43.8562 6.25645Z" fill="url(#paint28_linear_404_4)"/>
<path d="M39.6892 42.1204L38.6173 37.5267C38.3329 36.3017 37.2501 35.4485 35.9923 35.4485H35.3579V34.0376H35.9923C37.9063 34.0376 39.547 35.3392 39.9845 37.2095L41.0563 41.8032L39.6892 42.1204Z" fill="url(#paint29_linear_404_4)"/>
<path d="M35.9923 34.0376H35.3579V35.4485H35.9923C36.747 35.4485 37.4251 35.7548 37.9173 36.2579H39.6345C38.9454 34.9126 37.5563 34.0376 35.9923 34.0376Z" fill="url(#paint30_linear_404_4)"/>
<path d="M52.7922 54.0094H40.7062C39.2844 54.0094 38.1031 52.8938 38.0812 51.4719C38.0484 50.0172 39.2297 48.8359 40.6734 48.8359H52.7047V50.2469H40.6844C40.05 50.2469 39.5031 50.7391 39.4703 51.3844C39.4484 52.0516 39.9844 52.6094 40.6515 52.6094H52.7922C53.175 52.6094 53.4922 52.9266 53.4922 53.3094C53.4922 53.6922 53.1859 54.0094 52.7922 54.0094Z" fill="url(#paint31_linear_404_4)"/>
<path d="M40.7063 54.0093H52.8032C53.186 54.0093 53.5032 53.6921 53.5032 53.3093C53.5032 52.9265 53.186 52.6093 52.8032 52.6093H40.6626C40.1048 52.6093 39.6454 52.2265 39.5142 51.7124H38.0923C38.2345 53.003 39.361 54.0093 40.7063 54.0093Z" fill="url(#paint32_linear_404_4)"/>
<path d="M44.458 52.5981H48.0455V54.0091H44.458V52.5981Z" fill="url(#paint33_linear_404_4)"/>
<path d="M43.3205 55.9998C44.4199 55.9998 45.3111 55.1086 45.3111 54.0092C45.3111 52.9098 44.4199 52.0186 43.3205 52.0186C42.2211 52.0186 41.3298 52.9098 41.3298 54.0092C41.3298 55.1086 42.2211 55.9998 43.3205 55.9998Z" fill="url(#paint34_linear_404_4)"/>
<path d="M41.3298 54.0092C41.3298 55.1139 42.2267 55.9998 43.3205 55.9998C44.4251 55.9998 45.3111 55.1029 45.3111 54.0092C45.3111 53.7904 45.2783 53.5826 45.2126 53.3857H41.4283C41.3626 53.5717 41.3298 53.7904 41.3298 54.0092Z" fill="url(#paint35_linear_404_4)"/>
<path d="M43.3204 52.0186C43.0798 52.0186 42.8501 52.0623 42.6313 52.1389V55.8795C42.8501 55.9561 43.0798 55.9998 43.3204 55.9998C44.4251 55.9998 45.311 55.1029 45.311 54.0092C45.311 52.9154 44.4251 52.0186 43.3204 52.0186Z" fill="url(#paint36_linear_404_4)"/>
<path d="M43.3204 55.1466C43.9486 55.1466 44.4579 54.6373 44.4579 54.0091C44.4579 53.3809 43.9486 52.8716 43.3204 52.8716C42.6921 52.8716 42.1829 53.3809 42.1829 54.0091C42.1829 54.6373 42.6921 55.1466 43.3204 55.1466Z" fill="url(#paint37_linear_404_4)"/>
<path d="M52.7594 55.9998C53.8588 55.9998 54.75 55.1086 54.75 54.0092C54.75 52.9098 53.8588 52.0186 52.7594 52.0186C51.66 52.0186 50.7688 52.9098 50.7688 54.0092C50.7688 55.1086 51.66 55.9998 52.7594 55.9998Z" fill="url(#paint38_linear_404_4)"/>
<path d="M50.7688 54.0092C50.7688 55.1139 51.6657 55.9998 52.7594 55.9998C53.8532 55.9998 54.75 55.1029 54.75 54.0092C54.75 53.7904 54.7172 53.5826 54.6516 53.3857H50.8672C50.8016 53.5717 50.7688 53.7904 50.7688 54.0092Z" fill="url(#paint39_linear_404_4)"/>
<path d="M52.7594 52.0186C52.5187 52.0186 52.2891 52.0623 52.0703 52.1389V55.8795C52.2891 55.9561 52.5187 55.9998 52.7594 55.9998C53.8641 55.9998 54.75 55.1029 54.75 54.0092C54.75 52.9154 53.8641 52.0186 52.7594 52.0186Z" fill="url(#paint40_linear_404_4)"/>
<path d="M52.7593 55.1466C53.3875 55.1466 53.8968 54.6373 53.8968 54.0091C53.8968 53.3809 53.3875 52.8716 52.7593 52.8716C52.1311 52.8716 51.6218 53.3809 51.6218 54.0091C51.6218 54.6373 52.1311 55.1466 52.7593 55.1466Z" fill="url(#paint41_linear_404_4)"/>
<path d="M35.861 33.5015H33.8595C33.1157 33.5015 32.5142 34.103 32.5142 34.8468C32.5142 35.2624 32.7001 35.6233 32.9954 35.8749C33.0938 35.9624 33.236 35.9624 33.3454 35.8968C33.4548 35.8312 33.597 35.7874 33.7392 35.7874C33.8923 35.7874 34.0235 35.8312 34.1438 35.9077C34.2423 35.9733 34.3626 35.9733 34.461 35.9077C34.5813 35.8312 34.7235 35.7874 34.8657 35.7874C35.0079 35.7874 35.1501 35.8312 35.2704 35.9077C35.3688 35.9733 35.4892 35.9733 35.5876 35.9077C35.7079 35.8312 35.8501 35.7874 35.9923 35.7874C36.1345 35.7874 36.2657 35.8312 36.386 35.8968C36.4954 35.9624 36.6376 35.9515 36.736 35.8749C37.0313 35.6233 37.2173 35.2624 37.2173 34.8468C37.2063 34.103 36.6048 33.5015 35.861 33.5015Z" fill="url(#paint42_linear_404_4)"/>
<path d="M36.9547 35.3829C36.8016 35.2954 36.6156 35.2407 36.4187 35.2407C36.2109 35.2407 36.025 35.2954 35.8609 35.3938C35.7297 35.4704 35.5547 35.4704 35.4234 35.3938C35.2594 35.2954 35.0734 35.2407 34.8656 35.2407C34.6578 35.2407 34.4719 35.2954 34.3078 35.3938C34.1766 35.4704 34.0016 35.4704 33.8703 35.3938C33.7063 35.2954 33.5203 35.2407 33.3125 35.2407C33.1156 35.2407 32.9297 35.2954 32.7766 35.3829C32.7328 35.4048 32.7 35.4157 32.6562 35.4267C32.7438 35.6017 32.8531 35.7548 33.0063 35.8751C33.1047 35.9626 33.2469 35.9626 33.3562 35.897C33.4656 35.8313 33.6078 35.7876 33.75 35.7876C33.9031 35.7876 34.0344 35.8313 34.1547 35.9079C34.2531 35.9735 34.3734 35.9735 34.4719 35.9079C34.5922 35.8313 34.7344 35.7876 34.8766 35.7876C35.0187 35.7876 35.1609 35.8313 35.2812 35.9079C35.3797 35.9735 35.5 35.9735 35.5984 35.9079C35.7187 35.8313 35.8609 35.7876 36.0031 35.7876C36.1453 35.7876 36.2766 35.8313 36.3969 35.897C36.5063 35.9626 36.6484 35.9517 36.7469 35.8751C36.8891 35.7548 37.0094 35.6017 37.0969 35.4267C37.0313 35.4157 36.9875 35.4048 36.9547 35.3829Z" fill="url(#paint43_linear_404_4)"/>
<path d="M35.861 33.5015H34.7017V35.8202C34.7563 35.8093 34.811 35.7983 34.8657 35.7983C35.0188 35.7983 35.1501 35.8421 35.2704 35.9187C35.3688 35.9843 35.4892 35.9843 35.5876 35.9187C35.7079 35.8421 35.8501 35.7983 35.9923 35.7983C36.1345 35.7983 36.2657 35.8421 36.386 35.9077C36.4954 35.9733 36.6376 35.9624 36.736 35.8858C37.0313 35.6343 37.2173 35.2733 37.2173 34.8577C37.2063 34.103 36.6048 33.5015 35.861 33.5015Z" fill="url(#paint44_linear_404_4)"/>
<path d="M44.6986 43.3671H46.6564C46.7768 43.3671 46.8861 43.3233 46.9736 43.2358C47.0611 43.1483 47.1049 43.039 47.0939 42.9187L47.083 42.4265C47.0721 41.989 46.7221 41.6499 46.2846 41.6499H45.0377C44.8189 41.6499 44.6221 41.7374 44.4689 41.8905C44.3158 42.0437 44.2393 42.2515 44.2393 42.4702L44.2502 42.9515C44.2611 43.1812 44.458 43.3671 44.6986 43.3671ZM44.8846 42.2952C44.9283 42.2515 44.983 42.2296 45.0377 42.2296H46.2846C46.4049 42.2296 46.5033 42.328 46.5033 42.4483L46.5143 42.7983H44.8299L44.8189 42.4593C44.8189 42.3937 44.8408 42.339 44.8846 42.2952Z" fill="url(#paint45_linear_404_4)"/>
<path d="M43.6048 42.3827C43.572 41.9671 43.222 41.6499 42.8064 41.6499H41.5595C41.3407 41.6499 41.122 41.7374 40.9798 41.9015C40.8267 42.0655 40.7501 42.2843 40.772 42.503L41.2204 48.4202C41.2532 48.8358 41.6032 49.153 42.0189 49.153H43.2657C43.4845 49.153 43.7032 49.0655 43.8454 48.9015C43.9985 48.7374 44.0751 48.5187 44.0532 48.2999L43.6048 42.3827ZM43.4189 48.5187C43.3751 48.5624 43.3204 48.5843 43.2548 48.5843H42.0079C41.8876 48.5843 41.8001 48.4968 41.7892 48.3765L41.3407 42.4593C41.3407 42.3937 41.3517 42.339 41.3954 42.2952C41.4392 42.2515 41.4939 42.2296 41.5595 42.2296H42.8064C42.9267 42.2296 43.0142 42.3171 43.0251 42.4374L43.4735 48.3546C43.4845 48.4093 43.4626 48.4749 43.4189 48.5187Z" fill="url(#paint46_linear_404_4)"/>
<path d="M46.7876 47.4468H44.8298C44.7095 47.4468 44.6001 47.4905 44.5126 47.578C44.4251 47.6655 44.3813 47.7749 44.3923 47.8952L44.4032 48.3874C44.4142 48.8249 44.7642 49.164 45.2017 49.164H46.4376C46.6563 49.164 46.8532 49.0765 47.0063 48.9233C47.1595 48.7702 47.236 48.5624 47.236 48.3437L47.2251 47.8624C47.2142 47.6327 47.0173 47.4468 46.7876 47.4468ZM46.5907 48.5187C46.547 48.5624 46.4923 48.5843 46.4376 48.5843H45.1907C45.0704 48.5843 44.972 48.4858 44.972 48.3655L44.961 48.0155H46.6454L46.6563 48.3546C46.6563 48.4202 46.6345 48.4749 46.5907 48.5187Z" fill="url(#paint47_linear_404_4)"/>
<path d="M50.1891 47.4468H48.2313C47.9907 47.4468 47.7938 47.6327 47.7938 47.8733L47.7829 48.3546C47.772 48.5733 47.8595 48.7812 48.0126 48.9343C48.1657 49.0874 48.3626 49.1749 48.5813 49.1749H49.8282C50.2657 49.1749 50.6157 48.8358 50.6266 48.3983L50.6376 47.9062C50.6376 47.7858 50.5938 47.6765 50.5173 47.589C50.4188 47.4905 50.3095 47.4468 50.1891 47.4468ZM50.047 48.3765C50.047 48.4968 49.9485 48.5952 49.8282 48.5952H48.5813C48.5157 48.5952 48.461 48.5733 48.4282 48.5296C48.3845 48.4858 48.3626 48.4312 48.3626 48.3655L48.3735 48.0265H50.0579L50.047 48.3765Z" fill="url(#paint48_linear_404_4)"/>
<path d="M53.4486 41.6499H52.2017C51.7861 41.6499 51.4361 41.978 51.4033 42.3827L50.9548 48.2999C50.933 48.5187 51.0095 48.7374 51.1627 48.9015C51.3158 49.0655 51.5236 49.153 51.7423 49.153H52.9892C53.4048 49.153 53.7549 48.8249 53.7877 48.4202L54.2361 42.503C54.258 42.2843 54.1814 42.0655 54.0283 41.9015C53.8861 41.7374 53.6783 41.6499 53.4486 41.6499ZM53.6674 42.4593L53.2189 48.3765C53.208 48.4858 53.1095 48.5843 53.0002 48.5843H51.7533C51.6877 48.5843 51.633 48.5624 51.5892 48.5187C51.5455 48.4749 51.5236 48.4093 51.5345 48.3546L51.983 42.4374C51.9939 42.328 52.0924 42.2296 52.2017 42.2296H53.4486C53.5142 42.2296 53.5689 42.2515 53.6127 42.2952C53.6564 42.339 53.6783 42.4046 53.6674 42.4593Z" fill="url(#paint49_linear_404_4)"/>
<path d="M49.9813 41.6499H48.7344C48.2969 41.6499 47.9469 41.989 47.936 42.4265L47.925 42.9187C47.925 43.039 47.9688 43.1483 48.0454 43.2358C48.1329 43.3233 48.2422 43.3671 48.3625 43.3671H50.3204C50.561 43.3671 50.7579 43.1812 50.7579 42.9405L50.7688 42.4593C50.7797 42.2405 50.6922 42.0327 50.5391 41.8796C50.3969 41.7374 50.1891 41.6499 49.9813 41.6499ZM50.1891 42.7983H48.5047L48.5157 42.4483C48.5157 42.328 48.6141 42.2296 48.7344 42.2296H49.9813C50.0469 42.2296 50.1016 42.2515 50.1344 42.2952C50.1782 42.339 50.2 42.3937 50.2 42.4593L50.1891 42.7983Z" fill="url(#paint50_linear_404_4)"/>
<path d="M39.2078 39.8232L40.3125 49.5904C40.3671 50.0498 40.75 50.3998 41.2203 50.3998H53.8093C54.2687 50.3998 54.6625 50.0498 54.7171 49.5904L55.8218 39.8232H39.2078ZM48.7343 41.9342H49.9812C50.2656 41.9342 50.4953 42.1748 50.4953 42.4592L50.4843 42.9404C50.4843 43.0279 50.4187 43.0936 50.3312 43.0936H48.3734C48.2859 43.0936 48.2203 43.0279 48.2203 42.9404L48.2312 42.4482C48.2312 42.1529 48.4609 41.9342 48.7343 41.9342ZM45.0375 41.9342H46.2843C46.5578 41.9342 46.7875 42.1529 46.7984 42.4264L46.8093 42.9186C46.8093 43.0061 46.7437 43.0717 46.6562 43.0717H44.6984C44.6109 43.0717 44.5453 43.0061 44.5453 42.9186L44.5343 42.4373C44.5234 42.1748 44.7531 41.9342 45.0375 41.9342ZM43.2546 48.8795H42.0078C41.7453 48.8795 41.5156 48.6717 41.5046 48.4092L41.0562 42.492C41.0343 42.1967 41.264 41.9451 41.5593 41.9451H42.8062C43.0687 41.9451 43.2984 42.1529 43.3093 42.4154L43.7578 48.3326C43.7906 48.6279 43.55 48.8795 43.2546 48.8795ZM46.4375 48.8795H45.1906C44.9171 48.8795 44.6875 48.6607 44.6765 48.3873L44.6656 47.8951C44.6656 47.8076 44.7312 47.742 44.8187 47.742H46.7765C46.864 47.742 46.9296 47.8076 46.9296 47.8951L46.9406 48.3764C46.9515 48.6389 46.7218 48.8795 46.4375 48.8795ZM49.8171 48.8795H48.5703C48.2859 48.8795 48.0562 48.6389 48.0562 48.3545L48.0671 47.8732C48.0671 47.7857 48.1328 47.7201 48.2203 47.7201H50.1781C50.2656 47.7201 50.3312 47.7857 50.3312 47.8732L50.3203 48.3654C50.3203 48.6607 50.1015 48.8795 49.8171 48.8795ZM53.9625 42.4811L53.514 48.3982C53.4921 48.6607 53.2734 48.8686 53.0109 48.8686H51.764C51.4687 48.8686 51.239 48.617 51.2609 48.3217L51.7093 42.4045C51.7312 42.142 51.95 41.9342 52.2125 41.9342H53.4593C53.7437 41.9342 53.9843 42.1857 53.9625 42.4811Z" fill="url(#paint51_linear_404_4)"/>
<path d="M53.7219 45.5981L53.5141 48.4091C53.4922 48.6716 53.2735 48.8794 53.011 48.8794H51.7641C51.4688 48.8794 51.2391 48.6278 51.261 48.3325L51.4688 45.5981H43.5719L43.7797 48.3325C43.8016 48.6278 43.5719 48.8794 43.2766 48.8794H42.0297C41.7672 48.8794 41.5375 48.6716 41.5266 48.4091L41.3188 45.5981H39.886L40.3344 49.5903C40.3891 50.0497 40.7719 50.3997 41.2422 50.3997H53.8313C54.2907 50.3997 54.6844 50.0497 54.7391 49.5903L55.1875 45.5981H53.7219ZM46.4375 48.8794H45.1907C44.9172 48.8794 44.6875 48.6606 44.6766 48.3872L44.6657 47.895C44.6657 47.8075 44.7313 47.7419 44.8188 47.7419H46.7766C46.8641 47.7419 46.9297 47.8075 46.9297 47.895L46.9407 48.3763C46.9516 48.6388 46.7219 48.8794 46.4375 48.8794ZM50.3313 48.3763C50.3204 48.6497 50.1016 48.8685 49.8172 48.8685H48.5704C48.286 48.8685 48.0563 48.6278 48.0563 48.3435L48.0672 47.8622C48.0672 47.7747 48.1329 47.7091 48.2204 47.7091H50.1782C50.2657 47.7091 50.3313 47.7747 50.3313 47.8622V48.3763Z" fill="url(#paint52_linear_404_4)"/>
<path d="M48.2094 47.7311H48.2313H50.1891C50.2766 47.7311 50.3422 47.7967 50.3422 47.8842L50.3313 48.3764C50.3204 48.6498 50.1016 48.8686 49.8172 48.8686H48.5704C48.4282 48.8686 48.2969 48.8029 48.1985 48.7154V50.3998H53.7875C54.2469 50.3998 54.6407 50.0498 54.6954 49.5904L55.8 39.8232H48.2094V47.7311ZM51.25 48.3326L51.6985 42.4154C51.7204 42.1529 51.9391 41.9451 52.2016 41.9451H53.4485C53.7438 41.9451 53.9735 42.1967 53.9516 42.492L53.5032 48.4092C53.4813 48.6717 53.2625 48.8795 53 48.8795H51.7532C51.4688 48.8795 51.2282 48.6279 51.25 48.3326ZM48.7344 41.9342H49.9813C50.2657 41.9342 50.4954 42.1748 50.4954 42.4592L50.4844 42.9404C50.4844 43.0279 50.4188 43.0936 50.3313 43.0936H48.3735C48.286 43.0936 48.2204 43.0279 48.2204 42.9404L48.2313 42.4482C48.2313 42.1529 48.461 41.9342 48.7344 41.9342Z" fill="url(#paint53_linear_404_4)"/>
<path d="M39.6453 43.6951H41.1437L41.0562 42.4811C41.0343 42.1857 41.264 41.9342 41.5593 41.9342H42.8062C43.0687 41.9342 43.2984 42.142 43.3093 42.4045L43.4078 43.6951H51.589L51.6875 42.4045C51.7093 42.142 51.9281 41.9342 52.1906 41.9342H53.4375C53.7328 41.9342 53.9625 42.1857 53.9406 42.4811L53.8531 43.6951H55.3515L55.789 39.8232H39.2078L39.6453 43.6951ZM48.2312 42.4373C48.2421 42.1639 48.4609 41.9451 48.7453 41.9451H49.9921C50.2765 41.9451 50.5062 42.1857 50.5062 42.4701L50.4953 42.9514C50.4953 43.0389 50.4296 43.1045 50.3421 43.1045H48.3843C48.2968 43.1045 48.2312 43.0389 48.2312 42.9514V42.4373ZM45.0375 41.9342H46.2843C46.5578 41.9342 46.7874 42.1529 46.7984 42.4264L46.8093 42.9186C46.8093 43.0061 46.7437 43.0717 46.6562 43.0717H44.6984C44.6109 43.0717 44.5453 43.0061 44.5453 42.9186L44.5343 42.4373C44.5234 42.1748 44.7531 41.9342 45.0375 41.9342Z" fill="url(#paint54_linear_404_4)"/>
<path d="M44.7204 46.7797L44.5891 44.0562C44.5782 43.8594 44.7423 43.6953 44.9391 43.6953H50.0688C50.2657 43.6953 50.4298 43.8594 50.4188 44.0562L50.2876 46.7797C50.2766 46.9656 50.1235 47.1078 49.9376 47.1078H45.0595C44.8845 47.1188 44.7313 46.9656 44.7204 46.7797Z" fill="url(#paint55_linear_404_4)"/>
<path d="M38.8141 38.5107H56.1938C56.6313 38.5107 56.9922 38.8717 56.9922 39.3092V40.0639C56.9922 40.5014 56.6313 40.8623 56.1938 40.8623H38.8141C38.3766 40.8623 38.0156 40.5014 38.0156 40.0639V39.3092C38.0266 38.8717 38.3766 38.5107 38.8141 38.5107Z" fill="url(#paint56_linear_404_4)"/>
<path d="M56.1938 38.5107H52.6719V40.8623H56.1938C56.6313 40.8623 56.9922 40.5014 56.9922 40.0639V39.3092C56.9922 38.8717 56.6422 38.5107 56.1938 38.5107Z" fill="url(#paint57_linear_404_4)"/>
</g>
<defs>
<filter id="filter0_d_404_4" x="0" y="0" width="64.011" height="64.0117" filterUnits="userSpaceOnUse" color-interpolation-filters="sRGB">
<feFlood flood-opacity="0" result="BackgroundImageFix"/>
<feColorMatrix in="SourceAlpha" type="matrix" values="0 0 0 0 0 0 0 0 0 0 0 0 0 0 0 0 0 0 127 0" result="hardAlpha"/>
<feOffset dy="4"/>
<feGaussianBlur stdDeviation="2"/>
<feComposite in2="hardAlpha" operator="out"/>
<feColorMatrix type="matrix" values="0 0 0 0 0 0 0 0 0 0 0 0 0 0 0 0 0 0 0.25 0"/>
<feBlend mode="normal" in2="BackgroundImageFix" result="effect1_dropShadow_404_4"/>
<feBlend mode="normal" in="SourceGraphic" in2="effect1_dropShadow_404_4" result="shape"/>
</filter>
<linearGradient id="paint0_linear_404_4" x1="27.5135" y1="18.0618" x2="36.7387" y2="53.4528" gradientUnits="userSpaceOnUse">
<stop stop-color="#FEF48B"/>
<stop offset="0.1646" stop-color="#FDF286"/>
<stop offset="0.3352" stop-color="#FDEE7A"/>
<stop offset="0.5086" stop-color="#FCE765"/>
<stop offset="0.6839" stop-color="#FCDE48"/>
<stop offset="0.8589" stop-color="#FBD123"/>
<stop offset="1" stop-color="#FAC600"/>
</linearGradient>
<linearGradient id="paint1_linear_404_4" x1="32" y1="29.57" x2="32" y2="22.4718" gradientUnits="userSpaceOnUse">
<stop stop-color="#FE9738" stop-opacity="0"/>
<stop offset="0.1207" stop-color="#FE9738" stop-opacity="0.016"/>
<stop offset="0.2459" stop-color="#FE9738" stop-opacity="0.065"/>
<stop offset="0.3731" stop-color="#FE9738" stop-opacity="0.147"/>
<stop offset="0.5018" stop-color="#FE9738" stop-opacity="0.262"/>
<stop offset="0.6317" stop-color="#FE9738" stop-opacity="0.41"/>
<stop offset="0.7625" stop-color="#FE9738" stop-opacity="0.59"/>
<stop offset="0.8916" stop-color="#FE9738" stop-opacity="0.8"/>
<stop offset="1" stop-color="#FE9738"/>
</linearGradient>
<linearGradient id="paint2_linear_404_4" x1="32" y1="47.1927" x2="32" y2="51.1191" gradientUnits="userSpaceOnUse">
<stop stop-color="#FE9738" stop-opacity="0"/>
<stop offset="0.1207" stop-color="#FE9738" stop-opacity="0.016"/>
<stop offset="0.2459" stop-color="#FE9738" stop-opacity="0.065"/>
<stop offset="0.3731" stop-color="#FE9738" stop-opacity="0.147"/>
<stop offset="0.5018" stop-color="#FE9738" stop-opacity="0.262"/>
<stop offset="0.6317" stop-color="#FE9738" stop-opacity="0.41"/>
<stop offset="0.7625" stop-color="#FE9738" stop-opacity="0.59"/>
<stop offset="0.8916" stop-color="#FE9738" stop-opacity="0.8"/>
<stop offset="1" stop-color="#FE9738"/>
</linearGradient>
<linearGradient id="paint3_linear_404_4" x1="50.8787" y1="35.2733" x2="56.9683" y2="35.2733" gradientUnits="userSpaceOnUse">
<stop stop-color="#FE9738" stop-opacity="0"/>
<stop offset="0.1207" stop-color="#FE9738" stop-opacity="0.016"/>
<stop offset="0.2459" stop-color="#FE9738" stop-opacity="0.065"/>
<stop offset="0.3731" stop-color="#FE9738" stop-opacity="0.147"/>
<stop offset="0.5018" stop-color="#FE9738" stop-opacity="0.262"/>
<stop offset="0.6317" stop-color="#FE9738" stop-opacity="0.41"/>
<stop offset="0.7625" stop-color="#FE9738" stop-opacity="0.59"/>
<stop offset="0.8916" stop-color="#FE9738" stop-opacity="0.8"/>
<stop offset="1" stop-color="#FE9738"/>
</linearGradient>
<linearGradient id="paint4_linear_404_4" x1="43.5323" y1="45.7095" x2="41.6221" y2="45.9824" gradientUnits="userSpaceOnUse">
<stop stop-color="#FE9738" stop-opacity="0"/>
<stop offset="0.1207" stop-color="#FE9738" stop-opacity="0.016"/>
<stop offset="0.2459" stop-color="#FE9738" stop-opacity="0.065"/>
<stop offset="0.3731" stop-color="#FE9738" stop-opacity="0.147"/>
<stop offset="0.5018" stop-color="#FE9738" stop-opacity="0.262"/>
<stop offset="0.6317" stop-color="#FE9738" stop-opacity="0.41"/>
<stop offset="0.7625" stop-color="#FE9738" stop-opacity="0.59"/>
<stop offset="0.8916" stop-color="#FE9738" stop-opacity="0.8"/>
<stop offset="1" stop-color="#FE9738"/>
</linearGradient>
<linearGradient id="paint5_linear_404_4" x1="47.3784" y1="44.7753" x2="47.3784" y2="42.1241" gradientUnits="userSpaceOnUse">
<stop stop-color="#FE9738" stop-opacity="0"/>
<stop offset="0.1207" stop-color="#FE9738" stop-opacity="0.016"/>
<stop offset="0.2459" stop-color="#FE9738" stop-opacity="0.065"/>
<stop offset="0.3731" stop-color="#FE9738" stop-opacity="0.147"/>
<stop offset="0.5018" stop-color="#FE9738" stop-opacity="0.262"/>
<stop offset="0.6317" stop-color="#FE9738" stop-opacity="0.41"/>
<stop offset="0.7625" stop-color="#FE9738" stop-opacity="0.59"/>
<stop offset="0.8916" stop-color="#FE9738" stop-opacity="0.8"/>
<stop offset="1" stop-color="#FE9738"/>
</linearGradient>
<linearGradient id="paint6_linear_404_4" x1="12.742" y1="33.2547" x2="30.3259" y2="49.314" gradientUnits="userSpaceOnUse">
<stop stop-color="#62DBFB"/>
<stop offset="0.2058" stop-color="#5DD8FA"/>
<stop offset="0.4191" stop-color="#51D1F9"/>
<stop offset="0.6358" stop-color="#3CC6F6"/>
<stop offset="0.8535" stop-color="#1FB6F3"/>
<stop offset="1" stop-color="#08A9F1"/>
</linearGradient>
<linearGradient id="paint7_linear_404_4" x1="17.5213" y1="41.6433" x2="12.7755" y2="41.6433" gradientUnits="userSpaceOnUse">
<stop stop-color="#017BAE" stop-opacity="0"/>
<stop offset="0.1466" stop-color="#017BAE" stop-opacity="0.024"/>
<stop offset="0.2986" stop-color="#017BAE" stop-opacity="0.095"/>
<stop offset="0.4531" stop-color="#017BAE" stop-opacity="0.215"/>
<stop offset="0.6093" stop-color="#017BAE" stop-opacity="0.382"/>
<stop offset="0.7669" stop-color="#017BAE" stop-opacity="0.597"/>
<stop offset="0.9233" stop-color="#017BAE" stop-opacity="0.856"/>
<stop offset="1" stop-color="#017BAE"/>
</linearGradient>
<linearGradient id="paint8_linear_404_4" x1="22.3872" y1="36.2734" x2="22.3872" y2="28.2412" gradientUnits="userSpaceOnUse">
<stop stop-color="#017BAE" stop-opacity="0"/>
<stop offset="0.1466" stop-color="#017BAE" stop-opacity="0.024"/>
<stop offset="0.2986" stop-color="#017BAE" stop-opacity="0.095"/>
<stop offset="0.4531" stop-color="#017BAE" stop-opacity="0.215"/>
<stop offset="0.6093" stop-color="#017BAE" stop-opacity="0.382"/>
<stop offset="0.7669" stop-color="#017BAE" stop-opacity="0.597"/>
<stop offset="0.9233" stop-color="#017BAE" stop-opacity="0.856"/>
<stop offset="1" stop-color="#017BAE"/>
</linearGradient>
<linearGradient id="paint9_linear_404_4" x1="25.2758" y1="41.5625" x2="19.1774" y2="40.6477" gradientUnits="userSpaceOnUse">
<stop stop-color="#017BAE" stop-opacity="0"/>
<stop offset="0.1466" stop-color="#017BAE" stop-opacity="0.024"/>
<stop offset="0.2986" stop-color="#017BAE" stop-opacity="0.095"/>
<stop offset="0.4531" stop-color="#017BAE" stop-opacity="0.215"/>
<stop offset="0.6093" stop-color="#017BAE" stop-opacity="0.382"/>
<stop offset="0.7669" stop-color="#017BAE" stop-opacity="0.597"/>
<stop offset="0.9233" stop-color="#017BAE" stop-opacity="0.856"/>
<stop offset="1" stop-color="#017BAE"/>
</linearGradient>
<linearGradient id="paint10_linear_404_4" x1="24.5909" y1="43.1142" x2="12.7327" y2="36.8125" gradientUnits="userSpaceOnUse">
<stop stop-color="white" stop-opacity="0"/>
<stop offset="0.1205" stop-color="white" stop-opacity="0.016"/>
<stop offset="0.2454" stop-color="white" stop-opacity="0.065"/>
<stop offset="0.3724" stop-color="white" stop-opacity="0.147"/>
<stop offset="0.5008" stop-color="white" stop-opacity="0.261"/>
<stop offset="0.6304" stop-color="white" stop-opacity="0.408"/>
<stop offset="0.761" stop-color="white" stop-opacity="0.588"/>
<stop offset="0.8898" stop-color="white" stop-opacity="0.797"/>
<stop offset="1" stop-color="white"/>
</linearGradient>
<linearGradient id="paint11_linear_404_4" x1="32" y1="50.1093" x2="32" y2="56.209" gradientUnits="userSpaceOnUse">
<stop stop-color="#EA9B58"/>
<stop offset="0.2058" stop-color="#E59755"/>
<stop offset="0.4191" stop-color="#D98C4E"/>
<stop offset="0.6358" stop-color="#C47A42"/>
<stop offset="0.8535" stop-color="#A76131"/>
<stop offset="1" stop-color="#904D24"/>
</linearGradient>
<linearGradient id="paint12_linear_404_4" x1="49.5217" y1="52.6341" x2="49.0538" y2="48.8525" gradientUnits="userSpaceOnUse">
<stop stop-color="#6D3326" stop-opacity="0"/>
<stop offset="0.1865" stop-color="#6D3326" stop-opacity="0.038"/>
<stop offset="0.3798" stop-color="#6D3326" stop-opacity="0.152"/>
<stop offset="0.5761" stop-color="#6D3326" stop-opacity="0.343"/>
<stop offset="0.7747" stop-color="#6D3326" stop-opacity="0.609"/>
<stop offset="0.9732" stop-color="#6D3326" stop-opacity="0.949"/>
<stop offset="1" stop-color="#6D3326"/>
</linearGradient>
<linearGradient id="paint13_linear_404_4" x1="45.3048" y1="54.7221" x2="40.0808" y2="57.0612" gradientUnits="userSpaceOnUse">
<stop stop-color="#6D3326" stop-opacity="0"/>
<stop offset="0.1865" stop-color="#6D3326" stop-opacity="0.038"/>
<stop offset="0.3798" stop-color="#6D3326" stop-opacity="0.152"/>
<stop offset="0.5761" stop-color="#6D3326" stop-opacity="0.343"/>
<stop offset="0.7747" stop-color="#6D3326" stop-opacity="0.609"/>
<stop offset="0.9732" stop-color="#6D3326" stop-opacity="0.949"/>
<stop offset="1" stop-color="#6D3326"/>
</linearGradient>
<linearGradient id="paint14_linear_404_4" x1="56.2586" y1="52.9077" x2="60.3936" y2="52.9077" gradientUnits="userSpaceOnUse">
<stop stop-color="#6D3326" stop-opacity="0"/>
<stop offset="0.1865" stop-color="#6D3326" stop-opacity="0.038"/>
<stop offset="0.3798" stop-color="#6D3326" stop-opacity="0.152"/>
<stop offset="0.5761" stop-color="#6D3326" stop-opacity="0.343"/>
<stop offset="0.7747" stop-color="#6D3326" stop-opacity="0.609"/>
<stop offset="0.9732" stop-color="#6D3326" stop-opacity="0.949"/>
<stop offset="1" stop-color="#6D3326"/>
</linearGradient>
<linearGradient id="paint15_linear_404_4" x1="56.0967" y1="55.5705" x2="53.6991" y2="54.4204" gradientUnits="userSpaceOnUse">
<stop stop-color="#6D3326" stop-opacity="0"/>
<stop offset="0.1865" stop-color="#6D3326" stop-opacity="0.038"/>
<stop offset="0.3798" stop-color="#6D3326" stop-opacity="0.152"/>
<stop offset="0.5761" stop-color="#6D3326" stop-opacity="0.343"/>
<stop offset="0.7747" stop-color="#6D3326" stop-opacity="0.609"/>
<stop offset="0.9732" stop-color="#6D3326" stop-opacity="0.949"/>
<stop offset="1" stop-color="#6D3326"/>
</linearGradient>
<linearGradient id="paint16_linear_404_4" x1="19.4966" y1="15.0254" x2="22.0742" y2="15.0254" gradientUnits="userSpaceOnUse">
<stop stop-color="#465A61"/>
<stop offset="0.3685" stop-color="#45565C"/>
<stop offset="0.7497" stop-color="#444D50"/>
<stop offset="1" stop-color="#444444"/>
</linearGradient>
<linearGradient id="paint17_linear_404_4" x1="40.8388" y1="15.0254" x2="43.4166" y2="15.0254" gradientUnits="userSpaceOnUse">
<stop stop-color="#465A61"/>
<stop offset="0.3685" stop-color="#45565C"/>
<stop offset="0.7497" stop-color="#444D50"/>
<stop offset="1" stop-color="#444444"/>
</linearGradient>
<linearGradient id="paint18_linear_404_4" x1="32" y1="16.4992" x2="32" y2="22.5988" gradientUnits="userSpaceOnUse">
<stop stop-color="#FE860A"/>
<stop offset="0.3561" stop-color="#FC8108"/>
<stop offset="0.7245" stop-color="#F87504"/>
<stop offset="1" stop-color="#F46700"/>
</linearGradient>
<linearGradient id="paint19_linear_404_4" x1="56.2586" y1="19.2981" x2="60.3936" y2="19.2981" gradientUnits="userSpaceOnUse">
<stop stop-color="#F46700" stop-opacity="0"/>
<stop offset="0.1276" stop-color="#F36500" stop-opacity="0.018"/>
<stop offset="0.2599" stop-color="#F26103" stop-opacity="0.073"/>
<stop offset="0.3944" stop-color="#F15B07" stop-opacity="0.164"/>
<stop offset="0.5304" stop-color="#EF520D" stop-opacity="0.292"/>
<stop offset="0.6676" stop-color="#EC4614" stop-opacity="0.456"/>
<stop offset="0.8059" stop-color="#E9371D" stop-opacity="0.657"/>
<stop offset="0.9424" stop-color="#E52628" stop-opacity="0.891"/>
<stop offset="1" stop-color="#E41F2D"/>
</linearGradient>
<linearGradient id="paint20_linear_404_4" x1="48.0416" y1="56.237" x2="48.0416" y2="53.7392" gradientUnits="userSpaceOnUse">
<stop stop-color="#6D3326" stop-opacity="0"/>
<stop offset="0.1865" stop-color="#6D3326" stop-opacity="0.038"/>
<stop offset="0.3798" stop-color="#6D3326" stop-opacity="0.152"/>
<stop offset="0.5761" stop-color="#6D3326" stop-opacity="0.343"/>
<stop offset="0.7747" stop-color="#6D3326" stop-opacity="0.609"/>
<stop offset="0.9732" stop-color="#6D3326" stop-opacity="0.949"/>
<stop offset="1" stop-color="#6D3326"/>
</linearGradient>
<linearGradient id="paint21_linear_404_4" x1="31.0352" y1="-0.239422" x2="33.3743" y2="17.2259" gradientUnits="userSpaceOnUse">
<stop stop-color="#FE646F"/>
<stop offset="0.2159" stop-color="#F9606C"/>
<stop offset="0.4396" stop-color="#ED5763"/>
<stop offset="0.6669" stop-color="#D84755"/>
<stop offset="0.8953" stop-color="#BB3142"/>
<stop offset="1" stop-color="#AC2638"/>
</linearGradient>
<linearGradient id="paint22_linear_404_4" x1="31.9999" y1="11.3263" x2="31.9999" y2="14.4451" gradientUnits="userSpaceOnUse">
<stop stop-color="#972437" stop-opacity="0"/>
<stop offset="0.1577" stop-color="#972437" stop-opacity="0.028"/>
<stop offset="0.3212" stop-color="#972437" stop-opacity="0.11"/>
<stop offset="0.4873" stop-color="#972437" stop-opacity="0.247"/>
<stop offset="0.6553" stop-color="#972437" stop-opacity="0.44"/>
<stop offset="0.8247" stop-color="#972437" stop-opacity="0.688"/>
<stop offset="0.9932" stop-color="#972437" stop-opacity="0.987"/>
<stop offset="1" stop-color="#972437"/>
</linearGradient>
<linearGradient id="paint23_linear_404_4" x1="45.2647" y1="6.96336" x2="50.5947" y2="6.96336" gradientUnits="userSpaceOnUse">
<stop stop-color="#972437" stop-opacity="0"/>
<stop offset="0.1577" stop-color="#972437" stop-opacity="0.028"/>
<stop offset="0.3212" stop-color="#972437" stop-opacity="0.11"/>
<stop offset="0.4873" stop-color="#972437" stop-opacity="0.247"/>
<stop offset="0.6553" stop-color="#972437" stop-opacity="0.44"/>
<stop offset="0.8247" stop-color="#972437" stop-opacity="0.688"/>
<stop offset="0.9932" stop-color="#972437" stop-opacity="0.987"/>
<stop offset="1" stop-color="#972437"/>
</linearGradient>
<linearGradient id="paint24_linear_404_4" x1="19.3634" y1="0.522582" x2="19.3634" y2="11.4829" gradientUnits="userSpaceOnUse">
<stop stop-color="#FEF48B"/>
<stop offset="0.1646" stop-color="#FDF286"/>
<stop offset="0.3352" stop-color="#FDEE7A"/>
<stop offset="0.5086" stop-color="#FCE765"/>
<stop offset="0.6839" stop-color="#FCDE48"/>
<stop offset="0.8589" stop-color="#FBD123"/>
<stop offset="1" stop-color="#FAC600"/>
</linearGradient>
<linearGradient id="paint25_linear_404_4" x1="25.434" y1="0.52268" x2="25.434" y2="11.483" gradientUnits="userSpaceOnUse">
<stop stop-color="#FEF48B"/>
<stop offset="0.1646" stop-color="#FDF286"/>
<stop offset="0.3352" stop-color="#FDEE7A"/>
<stop offset="0.5086" stop-color="#FCE765"/>
<stop offset="0.6839" stop-color="#FCDE48"/>
<stop offset="0.8589" stop-color="#FBD123"/>
<stop offset="1" stop-color="#FAC600"/>
</linearGradient>
<linearGradient id="paint26_linear_404_4" x1="31.6397" y1="0.522387" x2="31.6397" y2="11.4827" gradientUnits="userSpaceOnUse">
<stop stop-color="#FEF48B"/>
<stop offset="0.1646" stop-color="#FDF286"/>
<stop offset="0.3352" stop-color="#FDEE7A"/>
<stop offset="0.5086" stop-color="#FCE765"/>
<stop offset="0.6839" stop-color="#FCDE48"/>
<stop offset="0.8589" stop-color="#FBD123"/>
<stop offset="1" stop-color="#FAC600"/>
</linearGradient>
<linearGradient id="paint27_linear_404_4" x1="38.38" y1="0.52268" x2="38.38" y2="11.483" gradientUnits="userSpaceOnUse">
<stop stop-color="#FEF48B"/>
<stop offset="0.1646" stop-color="#FDF286"/>
<stop offset="0.3352" stop-color="#FDEE7A"/>
<stop offset="0.5086" stop-color="#FCE765"/>
<stop offset="0.6839" stop-color="#FCDE48"/>
<stop offset="0.8589" stop-color="#FBD123"/>
<stop offset="1" stop-color="#FAC600"/>
</linearGradient>
<linearGradient id="paint28_linear_404_4" x1="44.7489" y1="0.52268" x2="44.7489" y2="11.483" gradientUnits="userSpaceOnUse">
<stop stop-color="#FEF48B"/>
<stop offset="0.1646" stop-color="#FDF286"/>
<stop offset="0.3352" stop-color="#FDEE7A"/>
<stop offset="0.5086" stop-color="#FCE765"/>
<stop offset="0.6839" stop-color="#FCDE48"/>
<stop offset="0.8589" stop-color="#FBD123"/>
<stop offset="1" stop-color="#FAC600"/>
</linearGradient>
<linearGradient id="paint29_linear_404_4" x1="40.3265" y1="36.1552" x2="38.4067" y2="37.755" gradientUnits="userSpaceOnUse">
<stop stop-color="#E5E1E5"/>
<stop offset="0.198" stop-color="#E1DCE1"/>
<stop offset="0.4032" stop-color="#D5D0D5"/>
<stop offset="0.6118" stop-color="#C2BBC1"/>
<stop offset="0.8212" stop-color="#A79EA6"/>
<stop offset="1" stop-color="#8B8089"/>
</linearGradient>
<linearGradient id="paint30_linear_404_4" x1="37.801" y1="35.2909" x2="36.478" y2="34.9701" gradientUnits="userSpaceOnUse">
<stop stop-color="#444444" stop-opacity="0"/>
<stop offset="0.2378" stop-color="#444444" stop-opacity="0.061"/>
<stop offset="0.4841" stop-color="#444444" stop-opacity="0.244"/>
<stop offset="0.7343" stop-color="#444444" stop-opacity="0.549"/>
<stop offset="0.9859" stop-color="#444444" stop-opacity="0.973"/>
<stop offset="1" stop-color="#444444"/>
</linearGradient>
<linearGradient id="paint31_linear_404_4" x1="44.9878" y1="46.5884" x2="46.1325" y2="54.983" gradientUnits="userSpaceOnUse">
<stop stop-color="#E5E1E5"/>
<stop offset="0.198" stop-color="#E1DCE1"/>
<stop offset="0.4032" stop-color="#D5D0D5"/>
<stop offset="0.6118" stop-color="#C2BBC1"/>
<stop offset="0.8212" stop-color="#A79EA6"/>
<stop offset="1" stop-color="#8B8089"/>
</linearGradient>
<linearGradient id="paint32_linear_404_4" x1="45.792" y1="52.9173" x2="45.792" y2="54.2002" gradientUnits="userSpaceOnUse">
<stop stop-color="#444444" stop-opacity="0"/>
<stop offset="0.2378" stop-color="#444444" stop-opacity="0.061"/>
<stop offset="0.4841" stop-color="#444444" stop-opacity="0.244"/>
<stop offset="0.7343" stop-color="#444444" stop-opacity="0.549"/>
<stop offset="0.9859" stop-color="#444444" stop-opacity="0.973"/>
<stop offset="1" stop-color="#444444"/>
</linearGradient>
<linearGradient id="paint33_linear_404_4" x1="46.5022" y1="53.1798" x2="45.0388" y2="53.9015" gradientUnits="userSpaceOnUse">
<stop stop-color="#444444" stop-opacity="0"/>
<stop offset="0.2378" stop-color="#444444" stop-opacity="0.061"/>
<stop offset="0.4841" stop-color="#444444" stop-opacity="0.244"/>
<stop offset="0.7343" stop-color="#444444" stop-opacity="0.549"/>
<stop offset="0.9859" stop-color="#444444" stop-opacity="0.973"/>
<stop offset="1" stop-color="#444444"/>
</linearGradient>
<linearGradient id="paint34_linear_404_4" x1="41.9803" y1="52.6673" x2="44.2463" y2="54.9333" gradientUnits="userSpaceOnUse">
<stop stop-color="#465A61"/>
<stop offset="0.3685" stop-color="#45565C"/>
<stop offset="0.7497" stop-color="#444D50"/>
<stop offset="1" stop-color="#444444"/>
</linearGradient>
<linearGradient id="paint35_linear_404_4" x1="43.3208" y1="54.1406" x2="43.3208" y2="56.2055" gradientUnits="userSpaceOnUse">
<stop stop-color="#444444" stop-opacity="0"/>
<stop offset="0.3899" stop-color="#3D3D3D" stop-opacity="0.16"/>
<stop offset="0.7931" stop-color="#292929" stop-opacity="0.637"/>
<stop offset="1" stop-color="#1A1A1A"/>
</linearGradient>
<linearGradient id="paint36_linear_404_4" x1="43.0728" y1="54.0078" x2="45.8356" y2="54.0078" gradientUnits="userSpaceOnUse">
<stop stop-color="#444444" stop-opacity="0"/>
<stop offset="0.3899" stop-color="#3D3D3D" stop-opacity="0.16"/>
<stop offset="0.7931" stop-color="#292929" stop-opacity="0.637"/>
<stop offset="1" stop-color="#1A1A1A"/>
</linearGradient>
<linearGradient id="paint37_linear_404_4" x1="44.075" y1="54.762" x2="42.5816" y2="53.2685" gradientUnits="userSpaceOnUse">
<stop stop-color="#465A61"/>
<stop offset="0.3685" stop-color="#45565C"/>
<stop offset="0.7497" stop-color="#444D50"/>
<stop offset="1" stop-color="#444444"/>
</linearGradient>
<linearGradient id="paint38_linear_404_4" x1="51.422" y1="52.6673" x2="53.688" y2="54.9333" gradientUnits="userSpaceOnUse">
<stop stop-color="#465A61"/>
<stop offset="0.3685" stop-color="#45565C"/>
<stop offset="0.7497" stop-color="#444D50"/>
<stop offset="1" stop-color="#444444"/>
</linearGradient>
<linearGradient id="paint39_linear_404_4" x1="52.7625" y1="54.1406" x2="52.7625" y2="56.2055" gradientUnits="userSpaceOnUse">
<stop stop-color="#444444" stop-opacity="0"/>
<stop offset="0.3899" stop-color="#3D3D3D" stop-opacity="0.16"/>
<stop offset="0.7931" stop-color="#292929" stop-opacity="0.637"/>
<stop offset="1" stop-color="#1A1A1A"/>
</linearGradient>
<linearGradient id="paint40_linear_404_4" x1="52.5145" y1="54.0078" x2="55.2773" y2="54.0078" gradientUnits="userSpaceOnUse">
<stop stop-color="#444444" stop-opacity="0"/>
<stop offset="0.3899" stop-color="#3D3D3D" stop-opacity="0.16"/>
<stop offset="0.7931" stop-color="#292929" stop-opacity="0.637"/>
<stop offset="1" stop-color="#1A1A1A"/>
</linearGradient>
<linearGradient id="paint41_linear_404_4" x1="53.5167" y1="54.762" x2="52.0232" y2="53.2685" gradientUnits="userSpaceOnUse">
<stop stop-color="#465A61"/>
<stop offset="0.3685" stop-color="#45565C"/>
<stop offset="0.7497" stop-color="#444D50"/>
<stop offset="1" stop-color="#444444"/>
</linearGradient>
<linearGradient id="paint42_linear_404_4" x1="34.8534" y1="33.6199" x2="34.8534" y2="35.8924" gradientUnits="userSpaceOnUse">
<stop stop-color="#465A61"/>
<stop offset="0.3685" stop-color="#45565C"/>
<stop offset="0.7497" stop-color="#444D50"/>
<stop offset="1" stop-color="#444444"/>
</linearGradient>
<linearGradient id="paint43_linear_404_4" x1="34.8533" y1="36.0524" x2="34.8533" y2="35.3708" gradientUnits="userSpaceOnUse">
<stop stop-color="#465A61"/>
<stop offset="0.3685" stop-color="#45565C"/>
<stop offset="0.7497" stop-color="#444D50"/>
<stop offset="1" stop-color="#444444"/>
</linearGradient>
<linearGradient id="paint44_linear_404_4" x1="35.5349" y1="34.7303" x2="37.4429" y2="34.7303" gradientUnits="userSpaceOnUse">
<stop stop-color="#444444" stop-opacity="0"/>
<stop offset="0.3899" stop-color="#3D3D3D" stop-opacity="0.16"/>
<stop offset="0.7931" stop-color="#292929" stop-opacity="0.637"/>
<stop offset="1" stop-color="#1A1A1A"/>
</linearGradient>
<linearGradient id="paint45_linear_404_4" x1="46.4257" y1="44.1421" x2="45.1519" y2="41.6238" gradientUnits="userSpaceOnUse">
<stop stop-color="#9857BD"/>
<stop offset="0.192" stop-color="#9356BD"/>
<stop offset="0.391" stop-color="#8755BE"/>
<stop offset="0.5932" stop-color="#7253C1"/>
<stop offset="0.7966" stop-color="#5550C4"/>
<stop offset="1" stop-color="#314DC9"/>
</linearGradient>
<linearGradient id="paint46_linear_404_4" x1="44.9061" y1="45.6075" x2="40.3526" y2="45.2414" gradientUnits="userSpaceOnUse">
<stop stop-color="#9857BD"/>
<stop offset="0.192" stop-color="#9356BD"/>
<stop offset="0.391" stop-color="#8755BE"/>
<stop offset="0.5932" stop-color="#7253C1"/>
<stop offset="0.7966" stop-color="#5550C4"/>
<stop offset="1" stop-color="#314DC9"/>
</linearGradient>
<linearGradient id="paint47_linear_404_4" x1="46.8193" y1="50.1337" x2="45.4284" y2="47.4249" gradientUnits="userSpaceOnUse">
<stop stop-color="#9857BD"/>
<stop offset="0.192" stop-color="#9356BD"/>
<stop offset="0.391" stop-color="#8755BE"/>
<stop offset="0.5932" stop-color="#7253C1"/>
<stop offset="0.7966" stop-color="#5550C4"/>
<stop offset="1" stop-color="#314DC9"/>
</linearGradient>
<linearGradient id="paint48_linear_404_4" x1="49.5369" y1="49.4261" x2="49.0392" y2="47.4935" gradientUnits="userSpaceOnUse">
<stop stop-color="#9857BD"/>
<stop offset="0.192" stop-color="#9356BD"/>
<stop offset="0.391" stop-color="#8755BE"/>
<stop offset="0.5932" stop-color="#7253C1"/>
<stop offset="0.7966" stop-color="#5550C4"/>
<stop offset="1" stop-color="#314DC9"/>
</linearGradient>
<linearGradient id="paint49_linear_404_4" x1="54.2382" y1="45.7736" x2="51.0464" y2="45.0562" gradientUnits="userSpaceOnUse">
<stop stop-color="#9857BD"/>
<stop offset="0.192" stop-color="#9356BD"/>
<stop offset="0.391" stop-color="#8755BE"/>
<stop offset="0.5932" stop-color="#7253C1"/>
<stop offset="0.7966" stop-color="#5550C4"/>
<stop offset="1" stop-color="#314DC9"/>
</linearGradient>
<linearGradient id="paint50_linear_404_4" x1="50.1064" y1="44.3021" x2="48.8326" y2="41.5203" gradientUnits="userSpaceOnUse">
<stop stop-color="#9857BD"/>
<stop offset="0.192" stop-color="#9356BD"/>
<stop offset="0.391" stop-color="#8755BE"/>
<stop offset="0.5932" stop-color="#7253C1"/>
<stop offset="0.7966" stop-color="#5550C4"/>
<stop offset="1" stop-color="#314DC9"/>
</linearGradient>
<linearGradient id="paint51_linear_404_4" x1="39.5571" y1="29.191" x2="57.0998" y2="61.3525" gradientUnits="userSpaceOnUse">
<stop stop-color="#9857BD"/>
<stop offset="0.192" stop-color="#9356BD"/>
<stop offset="0.391" stop-color="#8755BE"/>
<stop offset="0.5932" stop-color="#7253C1"/>
<stop offset="0.7966" stop-color="#5550C4"/>
<stop offset="1" stop-color="#314DC9"/>
</linearGradient>
<linearGradient id="paint52_linear_404_4" x1="47.5091" y1="48.584" x2="47.5091" y2="50.4638" gradientUnits="userSpaceOnUse">
<stop stop-color="#814AA0" stop-opacity="0"/>
<stop offset="0.1738" stop-color="#7D489E" stop-opacity="0.033"/>
<stop offset="0.354" stop-color="#73459B" stop-opacity="0.133"/>
<stop offset="0.537" stop-color="#614095" stop-opacity="0.299"/>
<stop offset="0.7221" stop-color="#49398D" stop-opacity="0.531"/>
<stop offset="0.907" stop-color="#2A2F83" stop-opacity="0.827"/>
<stop offset="1" stop-color="#192A7D"/>
</linearGradient>
<linearGradient id="paint53_linear_404_4" x1="53.279" y1="45.3291" x2="55.0066" y2="45.6219" gradientUnits="userSpaceOnUse">
<stop stop-color="#814AA0" stop-opacity="0"/>
<stop offset="0.1738" stop-color="#7D489E" stop-opacity="0.033"/>
<stop offset="0.354" stop-color="#73459B" stop-opacity="0.133"/>
<stop offset="0.537" stop-color="#614095" stop-opacity="0.299"/>
<stop offset="0.7221" stop-color="#49398D" stop-opacity="0.531"/>
<stop offset="0.907" stop-color="#2A2F83" stop-opacity="0.827"/>
<stop offset="1" stop-color="#192A7D"/>
</linearGradient>
<linearGradient id="paint54_linear_404_4" x1="47.509" y1="42.1712" x2="47.509" y2="40.7643" gradientUnits="userSpaceOnUse">
<stop stop-color="#814AA0" stop-opacity="0"/>
<stop offset="0.1738" stop-color="#7D489E" stop-opacity="0.033"/>
<stop offset="0.354" stop-color="#73459B" stop-opacity="0.133"/>
<stop offset="0.537" stop-color="#614095" stop-opacity="0.299"/>
<stop offset="0.7221" stop-color="#49398D" stop-opacity="0.531"/>
<stop offset="0.907" stop-color="#2A2F83" stop-opacity="0.827"/>
<stop offset="1" stop-color="#192A7D"/>
</linearGradient>
<linearGradient id="paint55_linear_404_4" x1="49.3233" y1="49.0243" x2="45.8093" y2="41.7621" gradientUnits="userSpaceOnUse">
<stop stop-color="#9857BD"/>
<stop offset="0.192" stop-color="#9356BD"/>
<stop offset="0.391" stop-color="#8755BE"/>
<stop offset="0.5932" stop-color="#7253C1"/>
<stop offset="0.7966" stop-color="#5550C4"/>
<stop offset="1" stop-color="#314DC9"/>
</linearGradient>
<linearGradient id="paint56_linear_404_4" x1="47.509" y1="38.3058" x2="47.509" y2="41.2046" gradientUnits="userSpaceOnUse">
<stop stop-color="#9857BD"/>
<stop offset="0.192" stop-color="#9356BD"/>
<stop offset="0.391" stop-color="#8755BE"/>
<stop offset="0.5932" stop-color="#7253C1"/>
<stop offset="0.7966" stop-color="#5550C4"/>
<stop offset="1" stop-color="#314DC9"/>
</linearGradient>
<linearGradient id="paint57_linear_404_4" x1="55.5248" y1="39.6886" x2="57.1233" y2="39.6886" gradientUnits="userSpaceOnUse">
<stop stop-color="#814AA0" stop-opacity="0"/>
<stop offset="0.1738" stop-color="#7D489E" stop-opacity="0.033"/>
<stop offset="0.354" stop-color="#73459B" stop-opacity="0.133"/>
<stop offset="0.537" stop-color="#614095" stop-opacity="0.299"/>
<stop offset="0.7221" stop-color="#49398D" stop-opacity="0.531"/>
<stop offset="0.907" stop-color="#2A2F83" stop-opacity="0.827"/>
<stop offset="1" stop-color="#192A7D"/>
</linearGradient>
</defs>
</svg>
