<svg width="56" height="64" viewBox="0 0 56 64" fill="none" xmlns="http://www.w3.org/2000/svg">
<g filter="url(#filter0_d_404_162)">
<path d="M36.4009 48.8842V47.7347C36.4009 47.4188 36.547 47.1207 36.7965 46.9271C37.324 46.5179 37.324 45.7211 36.7965 45.3119C36.547 45.1183 36.4009 44.8202 36.4009 44.5043V43.3547C36.4009 42.9527 36.7268 42.627 37.1287 42.627C37.5307 42.627 37.8565 42.3011 37.8565 41.8991V41.0733C37.8565 40.6713 37.5306 40.3454 37.1287 40.3454C36.7267 40.3454 36.4009 40.0195 36.4009 39.6177V37.4214C36.4009 37.0194 36.7268 36.6935 37.1287 36.6935C37.5307 36.6935 37.8565 36.3676 37.8565 35.9657V32.2559H29.6252V50.996C29.6252 51.7387 29.8974 52.4556 30.3902 53.0112L32.5771 55.4764C33.1961 56.1742 34.2858 56.1742 34.9047 55.4764L37.0916 53.0112C37.5845 52.4556 37.8566 51.7387 37.8566 50.996V50.3399C37.8566 49.9379 37.5307 49.612 37.1288 49.612C36.7268 49.6121 36.4009 49.2862 36.4009 48.8842Z" fill="url(#paint0_linear_404_162)"/>
<path d="M35.0539 32.2559V51.7038C35.0539 52.4289 34.466 53.0168 33.7409 53.0168C33.0157 53.0168 32.4279 52.4289 32.4279 51.7038V32.2559H35.0539Z" fill="url(#paint1_linear_404_162)"/>
<path d="M37.8566 41.0733C37.8566 40.6713 37.5307 40.3454 37.1287 40.3454C36.7267 40.3454 36.4009 40.0195 36.4009 39.6177V37.4214C36.4009 37.0194 36.7268 36.6936 37.1287 36.6936C37.5307 36.6936 37.8566 36.3677 37.8566 35.9657V32.2559H29.6252V34.1974L37.7329 42.3051C37.811 42.1892 37.8567 42.0495 37.8567 41.8992V41.0733H37.8566Z" fill="url(#paint2_linear_404_162)"/>
<path d="M33.7409 11.3457C27.1817 11.3457 21.8643 16.6631 21.8643 23.2223C21.8643 29.7816 27.1816 35.0989 33.7409 35.0989C40.3001 35.0989 45.6175 29.7816 45.6175 23.2223C45.6175 16.6631 40.3001 11.3457 33.7409 11.3457ZM33.7409 22.0786C31.8813 22.0786 30.3734 20.5719 30.3734 18.7111C30.3734 16.8516 31.8813 15.345 33.7409 15.345C35.6004 15.345 37.1083 16.8517 37.1083 18.7111C37.1083 20.5719 35.6004 22.0786 33.7409 22.0786Z" fill="url(#paint3_linear_404_162)"/>
<path d="M33.7409 13.4219C28.328 13.4219 23.9403 17.8095 23.9403 23.2224C23.9403 28.6353 28.328 33.023 33.7409 33.023C39.1538 33.023 43.5414 28.6353 43.5414 23.2224C43.5414 17.8095 39.1538 13.4219 33.7409 13.4219ZM33.7409 22.0787C31.8813 22.0787 30.3734 20.572 30.3734 18.7112C30.3734 16.8517 31.8813 15.3451 33.7409 15.3451C35.6004 15.3451 37.1083 16.8518 37.1083 18.7112C37.1083 20.572 35.6004 22.0787 33.7409 22.0787Z" fill="url(#paint4_linear_404_162)"/>
<path d="M33.7409 11.3457C27.1817 11.3457 21.8643 16.6631 21.8643 23.2223C21.8643 29.7816 27.1816 35.0989 33.7409 35.0989C40.3001 35.0989 45.6175 29.7816 45.6175 23.2223C45.6175 16.6631 40.3001 11.3457 33.7409 11.3457ZM33.7409 22.0786C31.8813 22.0786 30.3734 20.5719 30.3734 18.7111C30.3734 16.8516 31.8813 15.345 33.7409 15.345C35.6004 15.345 37.1083 16.8517 37.1083 18.7111C37.1083 20.5719 35.6004 22.0786 33.7409 22.0786Z" fill="url(#paint5_linear_404_162)"/>
<path d="M14.3182 41.9795L15.131 41.1668C15.3544 40.9434 15.6684 40.8359 15.9818 40.8755C16.6441 40.9591 17.2075 40.3957 17.1238 39.7334C17.0843 39.42 17.1918 39.106 17.4152 38.8826L18.2279 38.0699C18.5122 37.7856 18.9731 37.7856 19.2572 38.0699C19.5415 38.3541 20.0024 38.3541 20.2865 38.0699L20.8704 37.486C21.1546 37.2018 21.1546 36.7409 20.8704 36.4567C20.5861 36.1725 20.5861 35.7116 20.8704 35.4274L22.4234 33.8744C22.7077 33.5901 23.1686 33.5901 23.4527 33.8744C23.737 34.1586 24.1979 34.1586 24.482 33.8744L27.1052 31.2512L21.2848 25.4307L8.03384 38.6816C7.50864 39.2068 7.19416 39.9061 7.1498 40.6475L6.95303 43.937C6.89736 44.868 7.66786 45.6385 8.59889 45.5829L11.8884 45.3861C12.6298 45.3417 13.3291 45.0273 13.8543 44.5021L14.3182 44.0381C14.6025 43.7539 14.6025 43.2931 14.3182 43.0088C14.034 42.7246 14.034 42.2638 14.3182 41.9795Z" fill="url(#paint6_linear_404_162)"/>
<path d="M25.1238 29.269L11.3721 43.0207C10.8593 43.5335 10.028 43.5335 9.5152 43.0207C9.00242 42.508 9.00242 41.6766 9.5152 41.1638L23.2669 27.4121L25.1238 29.269Z" fill="url(#paint7_linear_404_162)"/>
<path d="M38.9811 13.5547C34.3431 8.91667 26.8232 8.91667 22.1851 13.5547C17.547 18.1927 17.5471 25.7126 22.1851 30.3507C26.8231 34.9888 34.343 34.9887 38.9811 30.3507C43.6193 25.7127 43.6193 18.1927 38.9811 13.5547ZM31.3919 21.1439C30.077 19.829 30.0762 17.6974 31.3919 16.3816C32.7068 15.0667 34.8385 15.0677 36.1534 16.3825C37.4683 17.6974 37.4691 19.829 36.1542 21.1439C34.8385 22.4597 32.7067 22.4588 31.3919 21.1439Z" fill="url(#paint8_linear_404_162)"/>
<path d="M37.513 15.0225C33.6855 11.195 27.4804 11.195 23.6529 15.0225C19.8253 18.8501 19.8253 25.0551 23.6529 28.8826C27.4804 32.7102 33.6855 32.7102 37.513 28.8826C41.3405 25.0551 41.3405 18.85 37.513 15.0225ZM31.3918 21.1438C30.0769 19.8289 30.076 17.6972 31.3918 16.3814C32.7067 15.0665 34.8383 15.0675 36.1532 16.3823C37.4681 17.6972 37.469 19.8289 36.1541 21.1438C34.8383 22.4595 32.7066 22.4587 31.3918 21.1438Z" fill="url(#paint9_linear_404_162)"/>
<path d="M35.873 21.3949L43.8829 29.4048C44.9832 27.6038 45.6174 25.4872 45.6174 23.2223C45.6174 21.6453 45.3093 20.1404 44.7511 18.7637C43.715 19.7507 41.1037 21.539 35.873 21.3949Z" fill="url(#paint10_linear_404_162)"/>
<path d="M38.2239 0C32.3625 0 27.5731 4.68478 27.4039 10.5079C28.9792 10.0721 30.6252 9.96646 32.2352 10.1921C32.5522 7.16778 35.1167 4.80249 38.2239 4.80249C41.546 4.80249 44.2474 7.5051 44.2474 10.826C44.2474 13.1588 42.9135 15.1867 40.9698 16.1867C40.1461 16.6106 39.212 16.8495 38.2239 16.8495C37.5492 16.8495 36.9008 16.7379 36.2945 16.5325H36.2933C35.5826 16.2912 34.9319 15.9203 34.3676 15.4495C33.3206 15.261 32.2017 15.572 31.3924 16.3812C30.8438 16.9299 30.5244 17.6202 30.4343 18.3334C31.8823 19.839 33.7637 20.9256 35.8731 21.395C36.6308 21.5631 37.4172 21.6519 38.2239 21.6519C39.7055 21.6519 41.1186 21.3529 42.4057 20.8115C46.3052 19.1726 49.0499 15.3138 49.0499 10.8259C49.0499 4.85652 44.1934 0 38.2239 0Z" fill="url(#paint11_linear_404_162)"/>
<path d="M46.5539 10.826C46.5539 6.2272 42.8258 2.49902 38.2269 2.49902C33.8745 2.49902 30.3042 5.83882 29.9338 10.0951C30.7015 10.0534 31.4724 10.085 32.2352 10.192C32.5522 7.16767 35.1167 4.80238 38.2239 4.80238C41.546 4.80238 44.2474 7.50498 44.2474 10.8259C44.2474 13.1587 42.9135 15.1865 40.9698 16.1866C40.1462 16.6105 39.212 16.8494 38.2239 16.8494C37.5492 16.8494 36.9008 16.7377 36.2946 16.5324H36.2934C35.5826 16.2911 34.9319 15.9201 34.3676 15.4494C33.4701 15.2878 32.5202 15.4944 31.7574 16.0663C33.2841 17.9488 35.6145 19.1528 38.227 19.1528C42.8258 19.153 46.5539 15.4249 46.5539 10.826Z" fill="url(#paint12_linear_404_162)"/>
</g>
<defs>
<filter id="filter0_d_404_162" x="2.9502" y="0" width="50.0999" height="64" filterUnits="userSpaceOnUse" color-interpolation-filters="sRGB">
<feFlood flood-opacity="0" result="BackgroundImageFix"/>
<feColorMatrix in="SourceAlpha" type="matrix" values="0 0 0 0 0 0 0 0 0 0 0 0 0 0 0 0 0 0 127 0" result="hardAlpha"/>
<feOffset dy="4"/>
<feGaussianBlur stdDeviation="2"/>
<feComposite in2="hardAlpha" operator="out"/>
<feColorMatrix type="matrix" values="0 0 0 0 0 0 0 0 0 0 0 0 0 0 0 0 0 0 0.25 0"/>
<feBlend mode="normal" in2="BackgroundImageFix" result="effect1_dropShadow_404_162"/>
<feBlend mode="normal" in="SourceGraphic" in2="effect1_dropShadow_404_162" result="shape"/>
</filter>
<linearGradient id="paint0_linear_404_162" x1="30.1368" y1="44.1279" x2="36.715" y2="44.1279" gradientUnits="userSpaceOnUse">
<stop stop-color="#FFDA2D"/>
<stop offset="1" stop-color="#FDBF00"/>
</linearGradient>
<linearGradient id="paint1_linear_404_162" x1="36.4778" y1="42.6363" x2="32.3145" y2="42.6363" gradientUnits="userSpaceOnUse">
<stop stop-color="#FFDA2D"/>
<stop offset="1" stop-color="#FDBF00"/>
</linearGradient>
<linearGradient id="paint2_linear_404_162" x1="36.1631" y1="39.3199" x2="33.6018" y2="32.8766" gradientUnits="userSpaceOnUse">
<stop stop-color="#FF9100" stop-opacity="0"/>
<stop offset="1" stop-color="#FF9100"/>
</linearGradient>
<linearGradient id="paint3_linear_404_162" x1="28.4008" y1="28.5624" x2="52.4215" y2="4.5417" gradientUnits="userSpaceOnUse">
<stop stop-color="#FFDA2D"/>
<stop offset="1" stop-color="#FDBF00"/>
</linearGradient>
<linearGradient id="paint4_linear_404_162" x1="38.4506" y1="18.5127" x2="15.7197" y2="41.2436" gradientUnits="userSpaceOnUse">
<stop stop-color="#FFDA2D"/>
<stop offset="1" stop-color="#FDBF00"/>
</linearGradient>
<linearGradient id="paint5_linear_404_162" x1="42.6903" y1="32.1718" x2="34.6359" y2="24.1173" gradientUnits="userSpaceOnUse">
<stop stop-color="#FF9100" stop-opacity="0"/>
<stop offset="1" stop-color="#FF9100"/>
</linearGradient>
<linearGradient id="paint6_linear_404_162" x1="13.2369" y1="34.1969" x2="17.8876" y2="38.8475" gradientUnits="userSpaceOnUse">
<stop stop-color="#FFDA2D"/>
<stop offset="1" stop-color="#FDBF00"/>
</linearGradient>
<linearGradient id="paint7_linear_404_162" x1="18.7745" y1="37.6253" x2="15.8311" y2="34.6819" gradientUnits="userSpaceOnUse">
<stop stop-color="#FFDA2D"/>
<stop offset="1" stop-color="#FDBF00"/>
</linearGradient>
<linearGradient id="paint8_linear_404_162" x1="23.0145" y1="21.9645" x2="56.9798" y2="21.9645" gradientUnits="userSpaceOnUse">
<stop stop-color="#FFDA2D"/>
<stop offset="1" stop-color="#FDBF00"/>
</linearGradient>
<linearGradient id="paint9_linear_404_162" x1="37.2246" y1="21.9644" x2="5.08336" y2="21.9644" gradientUnits="userSpaceOnUse">
<stop stop-color="#FFDA2D"/>
<stop offset="1" stop-color="#FDBF00"/>
</linearGradient>
<linearGradient id="paint10_linear_404_162" x1="42.1497" y1="25.6761" x2="40.4688" y2="20.5134" gradientUnits="userSpaceOnUse">
<stop stop-color="#FF9100" stop-opacity="0"/>
<stop offset="1" stop-color="#FF9100"/>
</linearGradient>
<linearGradient id="paint11_linear_404_162" x1="27.4039" y1="10.826" x2="49.0499" y2="10.826" gradientUnits="userSpaceOnUse">
<stop stop-color="#0B799D"/>
<stop offset="1" stop-color="#07485E"/>
</linearGradient>
<linearGradient id="paint12_linear_404_162" x1="48.9643" y1="21.5624" x2="30.3038" y2="2.90189" gradientUnits="userSpaceOnUse">
<stop stop-color="#0B799D"/>
<stop offset="1" stop-color="#07485E"/>
</linearGradient>
</defs>
</svg>
